<?xml version="1.0" standalone="no"?>
<!DOCTYPE svg PUBLIC "-//W3C//DTD SVG 1.1//EN" "http://www.w3.org/Graphics/SVG/1.1/DTD/svg11.dtd">
<svg xmlns="http://www.w3.org/2000/svg">
<metadata>Generated by Fontastic.me</metadata>
<defs>
<font id="knight" horiz-adv-x="512">
<font-face font-family="knight" units-per-em="512" ascent="480" descent="-32"/>
<missing-glyph horiz-adv-x="512" />

<glyph unicode="&#98;" d="M424 209c-11 0-25-3-35-9l-39 66 44 0c3 0 7 4 7 7 0 5-4 8-7 8l-57 0c-5 0-8-3-8-8 0-1 0-4 2-6l13-22-59 0c0 6 0 11 0 15 0 78-63 141-139 141-77 0-140-63-140-141 0-53 29-100 76-124 0-3 0-6 0-9 0-44 36-81 80-81 43 0 76 33 81 72l45 0c2 0 3 0 5 1 1 0 1 2 3 2 0 1 0 1 0 1l61 103 19-32c-19-15-32-38-32-66 0-44 36-81 80-81 46 0 82 37 82 81 0 45-36 82-82 82z m-402 45l22 0c4 0 7 3 7 7 0 5-3 8-7 8l-22 0c3 63 54 112 117 115l0-20c0-4 3-7 7-7 5 0 8 3 8 7l0 20c64-2 117-57 117-124 0-4 0-9-2-15l-44 0-13 21 25 0c4 0 9 4 9 7 0 5-5 8-9 8l-63 0c-4 0-7-3-7-8 0-3 3-7 7-7l21 0 20-32-19-33c-10 5-22 8-34 8-36 0-67-24-77-57-37 20-62 58-63 102z m187-60l15 25 51-86-32 0c-2 26-15 48-34 61z m19-61l-55 0 27 48c16-10 27-28 28-48z m-66-72c-36 0-66 31-66 67 0 35 30 66 66 66 9 0 18-1 25-6l-35-58c-1-3-1-6 0-8 2-3 4-4 7-4l69 0c-4-32-32-57-66-57z m126 79l-54 91 41 0c1 0 3 0 3 0l64 0z m136-79c-36 0-66 31-66 67 0 21 11 40 27 52l33-58c2-3 5-4 8-4 1 0 3 0 3 1 4 2 6 6 3 11l-35 57c8 4 19 7 27 7 37 0 68-31 68-66 0-36-31-67-68-67z m-319 151c-3 3-3 7-1 10l35 39 0 66c0 5 3 9 7 9 5 0 8-4 8-9l0-68c0-2-2-3-2-5l-37-41c-1-3-2-3-5-3-2 0-3 0-5 2z"/>
<glyph unicode="&#99;" d="M472 301l-93 0 0 14 93 0z m0-9l-93 0 0-15 93 0z m0 65l-93 0 0-32 93 0z m30 34l0-339c0-5-5-9-10-9l-133 0c-5 0-10 4-10 9l0 339c0 5 5 9 10 9l133 0c5 0 10-4 10-9z m-19-9l-115 0 0-321 115 0z m-11-114l-93 0 0-14 93 0z m-15-107c0-16-14-30-30-30-16 0-30 14-30 30 0 17 14 30 30 30 16 0 30-13 30-30z m-11 0c0 11-8 19-19 19-11 0-19-8-19-19 0-10 8-19 19-19 11 0 19 9 19 19z m-122 174l0-192c0-12-9-21-21-21l-103 0c0 0-6-42 31-42l0-21-126 0 0 21c36 0 32 42 32 42l-104 0c-12 0-21 9-21 21l0 192c0 12 9 21 21 21l270 0c12 0 21-9 21-21z m-137-187c0 10-8 18-17 18-10 0-19-8-19-18 0-10 9-18 19-18 9 0 17 8 17 18z m115 186l-268 0 0-162 268 0z m-132-175c-6 0-11-5-11-11 0-6 5-11 11-11 6 0 11 5 11 11 0 6-5 11-11 11z"/>
<glyph unicode="&#100;" d="M361 42c0 2-45 45-92 101 47 60 94 128 94 178 0 60-49 109-107 109-60 0-107-49-107-109 0-52 45-120 92-178-47-56-90-99-92-99-4-4-4-10 0-15 4-4 13-4 17-2 2 5 45 45 88 99 45-54 90-97 92-99 2-2 6-4 9-4 2 0 6 2 8 4 4 5 4 11-2 15z m-107 118c-43 54-84 116-84 161 0 47 39 85 86 85 47 0 86-38 86-85 0-41-43-105-88-161z"/>
<glyph unicode="&#101;" d="M453 291c-5 5-13 5-18 0-26-26-74-24-105 10-16 16-27 35-29 56 0 21 5 36 18 50 5 5 5 13 0 18-5 5-16 5-21 0-16-18-26-42-24-71 0-11 6-21 8-32-13 6-26 8-42 8-23 0-44-8-60-26-29-26-32-66-19-103-37 14-76 11-102-15-6-6-6-16 0-21 5-6 13-6 18 0 26 26 74 23 105-11 35-32 37-79 11-105-5-5-5-13 0-19 3-2 8-5 10-5 3 0 8 3 11 5 26 27 29 66 16 103 13-5 26-8 42-8 23 0 44 8 60 26 29 27 32 66 19 103 13-5 26-8 39-8 24 0 47 8 63 24 6 5 6 16 0 21z m-139-121c-24-26-76-21-105 10-35 32-37 79-11 106 11 10 26 18 42 18 24 0 48-11 63-29 35-32 37-79 11-105z m-61 110l56-55c5-5 5-13 0-18-3-3-6-3-11-3-3 0-5 0-8 3l-55 55c-5 5-5 13 0 18 5 6 13 6 18 0z m24-87c5-5 5-13 0-18-3-3-8-3-10-3-3 0-6 0-8 3l-56 55c-5 6-5 13 0 19 6 5 14 5 19 0z m-92-92c5-5 5-13 0-18-3-3-8-5-11-5-2 0-7 2-10 5l-53 53c-5 5-5 15 0 21 6 5 13 5 19 0z m142 253c-5 5-5 13 0 18 5 6 16 6 21 0l53-52c5-6 5-16 0-21-3-3-6-3-8-3-5 0-8 0-11 3z"/>
<glyph unicode="&#102;" d="M449 258c0 47-79 161-82 166-2 2-3 3-6 3-4 0-5-1-7-3-1-2-21-31-40-64-24 6-50 8-76 8-61 0-120-15-170-42-4-2-5-5-4-8 8-126 73-235 169-293 2 0 4 0 5 0 2 0 4 0 4 0 56 33 101 83 132 148 41 6 75 42 75 85z m-302-47l83 0 0-114c-35 29-64 69-83 114z m83 17l-90 0c-8 20-13 41-16 62 32 13 69 21 106 23z m16-17l42 0c7-11 16-20 29-27-19-35-43-64-71-87z m0 17l0 83c15 0 28-1 42-3-8-19-14-37-14-50 0-10 1-21 5-30z m-8-186c-88 54-148 155-157 272 46 25 101 37 157 37 23 0 45-1 68-6-3-6-8-14-11-21-18 3-36 5-55 5 0 0-2 0-2 0-1 0-1 0-1 0-44 0-87-10-126-26-3-1-6-5-5-9 13-92 60-173 127-221 2-2 4-2 5-2 2 0 4 0 5 2 36 26 66 61 89 103 8-2 16-3 24-5-29-55-69-100-118-129z m123 145c-10 0-20 3-29 7-24 11-42 37-42 64 0 31 47 108 71 147 25-39 70-116 70-147 0-39-32-71-70-71z m8 20c0-5-4-8-8-8-33 0-60 27-60 59 0 5 3 8 8 8 5 0 8-3 8-8 0-24 20-43 44-43 4 0 8-4 8-8z"/>
<glyph unicode="&#103;" d="M265 422c-5 6-13 6-18 0-6-7-128-191-128-262 0-77 62-137 137-137 75 0 137 60 137 137 0 71-122 255-128 262z m-9-377c-64 0-116 51-116 115 0 50 77 176 116 236 39-60 116-186 116-236 0-64-52-115-116-115z m11 32c0-5-5-11-11-11-51 0-94 43-94 94 0 7 6 11 13 11 4 0 10-4 10-11 0-40 32-73 71-73 6 0 11-4 11-10z"/>
<glyph unicode="&#104;" d="M412 137c0 5 0 7-4 9l-156 159 15 12c2 3 2 5 2 9 0 2 0 4-2 6l-32 33c-3 2-5 4-9 4-2 0-4-2-6-4l-11-9c-7 6-22 21-49 51-20 18-48 20-65 3-8-9-13-20-10-33 0-10 6-21 15-30 27-27 42-42 51-49l-11-13c-4-4-4-10 0-15l32-32c3-2 5-2 7-2 4 0 6 0 8 2l13 15 157-156c2-2 6-5 8-5 0 0 2 0 2 0 9 3 26 7 33 13 6 7 10 24 12 32z m-233 125l-17 17 13 11c2 2 2 4 2 8 0 2 0 4-2 7-3 2-60 57-60 57-5 7-9 13-9 18-2 6 0 10 4 15 9 8 24 6 32-5 0 0 58-55 58-58 2-2 7-2 9-2 2 0 6 0 8 2l9 9 17-15z m206-142c-3 0-9-2-15-4l-153 152 20 19 152-152c-2-6-4-13-4-15z m45-73c0-12-11-23-24-23-13 0-24 11-24 23 0 13 24 48 24 48 0 0 24-35 24-48z"/>
<glyph unicode="&#105;" d="M402 429l-292 0c-8 0-14-5-14-14l0-81c0-8 6-17 14-17l6 0 0-283c0-8 8-14 17-14l246 0c9 0 17 6 17 14l0 283 6 0c8 0 14 9 14 17l0 81c0 9-6 14-14 14z m-278-28l264 0 0-53-264 0z m241-353l-218 0 0 34 106 0c9 0 14 8 14 17 0 5-5 14-14 14l-106 0 0 28 106 0c9 0 14 5 14 14 0 5-5 14-14 14l-106 0 0 28 106 0c9 0 14 5 14 14 0 5-5 14-14 14l-106 0 0 28 145 0c9 0 14 5 14 14 0 5-5 14-14 14l-145 0 0 36 218 0z"/>
<glyph unicode="&#106;" d="M417 117c-2 2-4 4-6 4-2 0-7 0-9-2l-6-8-24 24 4 0c4 0 10 4 10 11l0 172 10 13 6-8c2-3 5-3 9-3 2 0 4 3 6 5l34 34c2 2 2 4 2 8 0 2 0 4-2 6l-53 51c-4 4-12 4-16 0l-32-36c-2-2-5-4-5-9 3-2 3-4 5-6l6-6-31-34-138 0-31 34 6 6c2 2 2 4 5 6 0 5-3 7-5 9l-32 36c-4 4-12 4-16 0l-53-51c-2-2-2-4-2-6 0-4 0-6 2-8l34-34c2-2 4-5 6-5 4 0 7 0 9 3l6 8 4-4c-2-2-2-2-2-4l0-177c0-7 6-11 10-11l10 0-22-24-6 8c-2 2-7 2-9 2-2 0-4-2-6-4l-34-34c-2-3-2-5-2-9 0-2 0-4 2-6l53-51c2-2 6-2 8-2 2 0 6 0 8 2l32 37c5 4 5 10 0 14l-8 6 19 19 0-13c0-4 4-10 10-10l138 0c6 0 10 6 10 10l0 21 25-27-6-6c-5-4-5-10 0-14l32-37c2-2 6-2 8-2 2 0 6 0 8 2l53 51c2 2 2 4 2 6 0 4 0 6-2 9z m-39 242c2 2 4 6 4 8 0 2-2 6-4 8l-6 6 18 21 12-10-6-6c-4-5-4-11 0-15 2-2 6-2 8-2 3 0 7 0 9 2l4 6 12-12-20-20-7 6c-2 2-4 4-8 4-2 0-4-2-6-4l-18-18-16 0z m-268-8l-7-6-20 20 12 12 4-6c2-2 6-2 9-2 2 0 6 0 8 2 4 4 4 10 0 15l-6 6 12 10 18-21-6-6c-2-2-4-6-4-8 0-2 2-6 4-8l24-26-16 0-18 18c-4 4-10 4-14 0z m24-268c-4-5-4-13 0-17l6-6-18-20-12 12 6 6c4 4 4 10 0 14-6 4-13 4-17 0l-6-6-10 10 20 21 7-6c2-2 4-4 8-4 2 0 4 2 6 4l43 44 6 0 0-12z m153 8l0 55c0 6-7 10-13 10-4 0-10-4-10-10l0-55-24 0 0 55c0 6-6 10-10 10-7 0-13-4-13-10l0-55-24 0 0 55c0 6-4 10-10 10l-43 0 0 156 226 0 0-156-45 0c-6 0-10-4-10-10l0-17c0 0 0-2 0-2l0-36-24 0z m132-25l-6 6c-4 4-13 4-17 0-4-4-4-10 0-14l6-6-12-12-18 20 6 6c4 4 4 12 0 17l-47 48 0 4 12 0 45-44c4-4 10-4 14 0l7 6 20-21z m-191 173c0-12-11-22-21-22-12 0-20 10-20 22 0 10 8 20 20 20 10 0 21-10 21-20z m69-22c-10 0-21 10-21 20 0 12 11 22 21 22 12 0 20-10 20-22 0-10-8-20-20-20z"/>
<glyph unicode="&#107;" d="M340 330l-31 19 0 71c0 5-5 9-9 9l-88 0c-4 0-9-4-9-9l0-71-31-19c-4-2-6-6-6-8l0-284c0-6 6-10 10-10l158 0c2 0 4 0 6 2 2 2 6 6 6 10l0 282c0 2-2 6-6 8z m-155-84l142 0 0-126-142 0z m39 164l64 0 0-51-64 0z m0-71l64 0 39-22 0-52-142 0 0 52z m-39-238l142 0 0-54-142 0z m98 76l-31-46c-2-1-6-3-7-3-2 0-4 0-6 2-6 3-6 9-4 13l21 30-19 2c-4 0-8 2-8 6-2 2-2 6 0 10l31 42c4 3 9 5 13 1 6-1 6-9 4-13l-21-27 19-2c4 0 8-1 8-5 2-2 2-6 0-10z"/>
<glyph unicode="&#108;" d="M505 245c0-6-4-10-10-10l-84 0-69-156c-2-4-6-6-10-6l-257 0c-6 0-10 4-10 10 0 6 4 10 10 10l249 0 71 156c0 4 4 7 8 7l92 0c6 0 10-5 10-11z m-350-187c-20 0-36-16-36-36 0-18 16-34 36-34 19 0 35 16 35 34 0 20-16 36-35 36z m121 0c-18 0-34-16-34-36 0-18 16-34 34-34 20 0 34 16 34 34 0 20-14 36-34 36z m-207 71l-60 225c-8 24 8 50 32 58l100 26c12 5 23 2 33-2 10 13 26 19 44 19l102-12c12-3 24-9 33-19 8-10 12-22 10-36l-27-231c-2-12-8-24-18-32-8-6-18-10-30-10-2 0-4 0-6 0l-50 8c-2 0-2-2-4-2l-101-26c-4-2-8-2-12-2-22 0-40 14-46 36z m123 295c4-6 8-12 10-20l4-14c4 6 12 12 20 10 12-2 20-12 18-24-2-10-12-20-22-18-4 0-6 2-10 2l8-26c12 0 22-8 22-18 2-10-4-18-10-22l26-97c2 8 12 14 20 14 12-2 20-12 20-24-2-12-12-20-24-18-4 0-8 2-12 6 2-12 0-22-6-32 0 0 0-2-2-2l32-6c6 0 14 2 20 6 4 6 8 12 10 18l26 231c0 8-2 16-6 20-4 6-12 10-18 12l-104 10c-8 2-18-2-22-8z m-165-66l62-225c4-14 18-22 32-18l101 26c8 2 14 6 16 14 4 6 6 12 4 20l-60 225c-2 4-6 10-10 12 0 2-2 2-2 2-4 4-11 6-15 6-4 0-6 0-8-2l-100-26c-14-4-22-20-20-34z m54-34c10 4 18 16 14 26-2 12-14 18-26 16-10-4-18-16-14-26 2-12 14-18 26-16z m70 20c13 4 19 14 17 26-4 12-15 18-27 14-12-2-18-14-14-26 2-10 14-16 24-14z m-54-78c10 4 18 14 14 26-2 12-14 18-26 16-10-4-18-16-14-26 2-12 14-18 26-16z m60 60c-12-2-18-14-16-26 4-10 16-18 27-14 12 2 18 14 16 26-4 10-16 18-27 14z m-46-119c12 2 18 14 16 26-4 10-14 18-26 14-12-2-18-14-14-26 2-10 14-18 24-14z m63 61c-12-4-19-14-17-27 4-12 17-18 27-14 12 2 18 14 16 24-4 13-16 19-26 17z m-57-79c-12-4-18-14-16-26 4-12 16-18 26-14 12 2 18 14 16 26-4 10-16 18-26 14z m73 20c-12-4-18-16-16-26 4-12 14-18 26-16 12 4 18 16 16 26-4 12-16 18-26 16z m104 141c12-2 22 6 24 18 2 12-8 22-18 24-12 2-22-8-24-18-2-12 8-22 18-24z m-6-60c12-2 22 6 24 18 0 12-8 22-20 24-10 0-22-8-22-18-2-12 6-22 18-24z m-6-61c10-2 20 6 22 18 2 13-6 23-18 25-12 0-22-8-24-21 0-10 8-22 20-22z"/>
<glyph unicode="&#109;" d="M481 279c2 2 5 9 11 15 7 9 16 20 14 33-1 11-14 16-25 24-6 3-13 7-15 11 0 1-2 11-2 18 0 13 0 25-9 33-5 5-20 5-34 3-8-1-17-1-17-1-4 1-9 7-13 12-9 9-18 20-29 20-11 0-20-11-29-20-4-5-9-11-13-12 0 0-9 0-16 1-15 2-30 2-35-3-8-6-9-13-9-22l-30 2c-18 3-34-6-45-19-11 6-22 8-35 4l-108-29c-25-8-42-35-35-61l66-243c6-22 26-36 48-36 3 0 9 0 13 2l107 29c2 0 4 2 4 2 2 0 2 0 2 0l55-9c2 0 3 0 5 0 11 0 22 3 31 10 11 10 17 21 19 33l11 101c3 0 7-4 10-6 10-3 19-9 28-9 2 0 4 0 5 0 11 6 17 17 20 30 4 5 6 14 10 16 1 2 11 4 16 5 13 2 26 4 31 15 6 9 2 22-2 33-1 5-5 15-5 18z m-252 95l31-3c-2-4-2-8-2-9-2-4-9-8-15-11-11-8-24-13-25-24-2-13 7-24 16-33 4-6 7-13 9-15 0-3-2-13-5-18 0-2-2-5-2-9l-24 91c-4 8-7 15-13 20 8 8 19 13 30 11z m-101-345c-16-4-33 5-38 22l-64 241c-6 17 5 35 22 38l107 30c2 0 6 2 8 2 7 0 13-4 18-6 0-2 2-2 2-4 5-3 9-9 11-14l64-242c5-16-6-34-22-38z m210 51c-2-9-5-16-11-22-7-5-14-7-23-5l-37 5c9 11 15 28 9 42l-31 119c6-4 15-4 22-6 5-1 15-3 16-5 4-2 6-11 10-16 1-6 3-13 7-19-9-3-15-14-11-25 4-11 16-19 27-15 13 2 20 15 17 27 0 2-2 4-2 4 4 2 9 6 15 7 1 2 1 2 3 2z m130 176c2-6 6-17 6-19-2-3-15-5-21-5-9-2-20-4-25-9-6-6-9-15-13-24-2-6-7-17-9-18-4 0-13 5-18 7-10 5-19 11-26 11-7 0-16-6-26-11-5-2-14-7-18-7-2 1-7 12-9 18-4 9-7 18-13 24-5 5-16 7-25 9-6 0-17 3-19 5-1 2 2 13 4 19 4 9 7 20 5 27-1 7-7 15-12 22-6 5-13 14-13 18 2 2 11 9 16 11 9 6 17 11 22 18 4 6 4 17 4 26 0 7 0 18 2 20 0 0 2 2 5 2 4 0 9-2 15-2 5-2 13-2 18-2 4 0 6 0 9 0 8 4 13 11 20 19 4 5 11 12 15 14 4-2 11-9 15-14 7-8 12-15 20-19 7-2 18 0 27 2 6 0 11 2 15 2 3 0 5-2 5-2 0 0 2-13 2-20 0-9 0-20 6-26 3-7 11-12 20-18 5-2 14-9 16-11 0-3-7-13-11-18-7-7-13-15-14-22-2-7 1-18 5-27z m-119 71c0 20-11 35-31 35-20 0-33-17-33-37 0-22 15-35 31-35 19 0 33 13 33 37z m-31-22c-9 0-13 9-13 20 0 13 4 22 13 22 7 0 11-9 11-22 0-13-4-20-11-20z m82 9c-18 0-31-16-31-37 0-21 13-34 31-34 17 0 33 13 33 36 0 20-12 35-33 35z m0-57c-7 0-11 8-11 20 0 11 4 21 11 21 10 0 11-8 11-21 2-12-3-20-11-20z m-1 105l-66-121-15 0 66 121z m-344-90c-2 13 5 26 16 29 13 2 26-3 28-16 3-13-4-26-15-28-13-3-25 4-29 15z m79 22c-4 11 3 24 14 27 13 4 26-3 29-16 2-11-3-24-16-28-13-3-26 4-27 17z m-61-84c-3 11 4 24 17 27 11 4 23-3 27-16 4-11-4-24-16-28-13-3-24 4-28 17z m77 20c-4 13 4 26 16 27 11 4 24-3 28-14 4-13-4-26-17-30-11-1-23 6-27 17z m-60-84c-4 13 3 25 16 29 11 2 24-5 28-16 3-13-4-26-17-28-11-3-24 4-27 15z m76 22c-1 11 4 24 17 27 13 4 25-3 27-16 4-11-3-24-14-28-13-3-26 4-30 17z m-16-73c4-11-4-24-15-28-12-3-25 4-29 17-2 11 6 23 17 27 12 4 25-4 27-16z m79 22c1-13-4-26-17-30-13-1-25 4-27 17-4 13 3 25 14 27 13 4 26-3 30-14z m98-13c2-13-5-24-16-28-13-3-26 4-28 17-3 11 4 24 15 27 13 4 26-3 29-16z"/>
<glyph unicode="&#110;" d="M399 338c0 51-41 91-91 91-27 0-52-12-68-31-41 1-72-10-94-35-43-49-31-130-31-132 1-4 4-5 6-5 0 0 2 0 2 0 3 0 6 3 5 6 0 1-11 78 28 122 17 19 42 30 74 31-8-13-12-29-13-44-1 0-2-1-5-1-17-6-30-17-36-33-17-36 6-87 6-88 1-2 4-4 7-4 2 0 5 2 6 4 8 17 18 27 30 27 12 0 22-9 25-14 10-21-17-50-28-60-2-2-4-6-1-9 18-27 17-39 14-44-5-7-20-6-22-6-5 0-9 18-13 28-4 16-7 30-18 33-22 5-39 1-47-9-19-28 13-87 17-92 9-28 33-44 65-46 3 0 5 0 8 0 30 0 58 13 69 33 14 30 19 49 23 66 4 15 6 28 15 44 20 36 32 70 35 100 20 16 32 41 32 68z m-91 78c43 0 78-35 78-78 0-41-35-76-78-76-42 0-75 32-77 74 0 0 0 0 0 1 0 0 0 1 0 1 0 43 34 78 77 78z m13-241c-9-17-13-31-17-45-4-17-9-37-22-64-9-17-36-27-64-26-13 2-44 7-54 38-13 22-30 63-18 78 6 9 22 7 34 5 2-3 6-16 7-24 6-18 11-38 26-37 2 0 24-3 33 13 7 11 4 30-11 53 11 12 40 43 26 73-4 7-18 20-35 20-1 0-1 0-1 0-10 0-23-4-35-22-5 16-12 44-3 65 6 13 15 21 29 25 1 0 1 1 2 1 6-45 44-79 90-79 17 0 31 4 44 10-4-24-14-53-31-84z m-73 163c0 4 4 8 7 8l46 0 0 45c0 4 3 8 7 8 4 0 6-4 6-8l0-45 47 0c4 0 6-4 6-8 0-2-2-6-6-6l-47 0 0-47c0-2-2-6-6-6-4 0-7 4-7 6l0 47-46 0c-4 0-7 4-7 6z"/>
<glyph unicode="&#111;" d="M70 333l95 0 0 94-95 0z m17 77l62 0 0-61-62 0z m-17-181l95 0 0 94-95 0z m17 78l62 0 0-62-62 0z m-17-181l95 0 0 94-95 0z m17 78l62 0 0-62-62 0z m-17-182l95 0 0 95-95 0z m17 78l62 0 0-62-62 0z m103 308l249 0 0-19-249 0z m0-33l179 0 0-18-179 0z m0-65l249 0 0-19-249 0z m0-33l179 0 0-19-179 0z m7-73l249 0 0-19-249 0z m0-33l178 0 0-19-178 0z m0-69l249 0 0-18-249 0z m0-32l178 0 0-19-178 0z"/>
<glyph unicode="&#112;" d="M388 224c38 38 61 76 45 104-5 8-17 21-48 21-17 0-40-5-63-11-13 54-36 92-66 92-30 0-53-38-66-92-23 6-46 11-63 11-31 0-43-13-48-21-16-28 7-66 48-104-8-7-15-12-21-20-38-43-35-68-27-84 5-7 17-20 48-20 17 0 40 5 63 10 13-53 36-91 66-91 30 0 53 38 66 91 23-5 46-10 63-10 31 0 43 13 48 20 16 28-7 66-45 104z m-3 99c13 0 23-2 26-10 7-10-8-38-43-71-13 8-23 18-36 25-2 16-2 31-5 44 20 7 41 12 58 12z m-104-144c-7-3-17-8-25-13-8 5-18 10-25 13-10 7-18 12-26 17 0 8 0 18 0 28 0 11 0 21 0 28 8 5 16 13 26 15 7 6 17 11 25 16 8-5 18-10 25-16 10-5 18-10 26-15 0-7 0-17 0-28 0-10 0-20 0-28-8-5-16-10-26-17z m23-15c0-8-2-13-2-18-5 2-11 5-16 7 3 0 5 3 8 5 3 0 8 3 10 6z m-78-11c-5-2-11-5-16-7 0 5-2 10-2 18 2-3 7-6 10-6 3-2 5-5 8-5z m-46 61c-5 3-10 8-15 10 5 3 10 8 15 11 0-3 0-8 0-11 0-2 0-7 0-10z m28 71c0 5 2 13 2 18 5-3 11-5 16-8-3 0-5-2-8-5-3 0-8-2-10-5z m78 10c5 3 11 5 16 8 0-5 2-10 2-18-2 3-7 5-10 5-3 3-5 5-8 5z m46-60c5-3 10-8 15-11-5-2-10-7-15-10 0 3 0 8 0 10 0 3 0 8 0 11z m-76 169c13 0 30-28 41-76-13-5-28-10-41-17-13 7-28 12-41 17 11 48 28 76 41 76z m-155-91c3 8 13 10 26 10 17 0 38-5 58-12-3-13-3-28-5-44-13-7-23-17-36-25-35 33-50 61-43 71z m26-187c-13 0-23 2-26 10-5 5 0 22 23 50 8 8 13 16 20 21 13-8 23-18 36-26 2-15 2-30 5-43-20-7-41-12-58-12z m129-82c-13 0-30 28-41 76 13 6 28 11 41 18 13-7 28-12 41-18-11-48-28-76-41-76z m155 92c-3-8-13-10-26-10-17 0-38 5-58 12 3 13 3 28 5 43 13 8 23 18 36 26 35-33 50-61 43-71z"/>
<glyph unicode="&#113;" d="M193 257c24 0 42 19 42 41 0 24-18 42-42 42-23 0-42-18-42-42 0-22 19-41 42-41z m0 74c18 0 33-15 33-33 0-18-15-32-33-32-18 0-33 14-33 32 0 18 15 33 33 33z m-9-50c1-1 2-1 3-1 1 0 2 0 3 1l23 23c2 2 2 5 0 7-2 2-5 2-7 0l-19-19-8 8c-2 2-6 2-7 0-2-2-2-5 0-7z m61 22l89 0c2 0 5 2 5 5 0 2-3 4-5 4l-89 0c-3 0-5-2-5-4 0-3 2-5 5-5z m0-21l89 0c2 0 5 2 5 5 0 3-3 5-5 5l-89 0c-3 0-5-2-5-5 0-3 2-5 5-5z m-52-111c24 0 42 19 42 43 0 23-18 42-42 42-23 0-42-19-42-42 0-24 19-43 42-43z m0 75c18 0 33-14 33-32 0-18-15-33-33-33-18 0-33 15-33 33 0 18 15 32 33 32z m-9-49c1-1 2-2 3-2 1 0 2 1 3 2l23 22c2 2 2 5 0 7-2 2-5 2-7 0l-19-19-8 9c-2 1-6 1-7 0-2-2-2-6 0-8z m61 21l89 0c2 0 5 2 5 5 0 3-3 5-5 5l-89 0c-3 0-5-2-5-5 0-3 2-5 5-5z m0-20l89 0c2 0 5 2 5 4 0 3-3 5-5 5l-89 0c-3 0-5-2-5-5 0-2 2-4 5-4z m-52-111c24 0 42 19 42 42 0 23-18 42-42 42-23 0-42-19-42-42 0-23 19-42 42-42z m0 74c18 0 33-14 33-32 0-18-15-33-33-33-18 0-33 15-33 33 0 18 15 32 33 32z m-9-50c1-1 2-1 3-1 1 0 2 0 3 1l23 24c2 2 2 5 0 6-2 2-5 2-7 0l-19-19-8 8c-2 2-6 2-7 0-2-2-2-5 0-6z m61 22l89 0c2 0 5 3 5 5 0 2-3 5-5 5l-89 0c-3 0-5-3-5-5 0-2 2-5 5-5z m0-21l89 0c2 0 5 3 5 6 0 2-3 5-5 5l-89 0c-3 0-5-3-5-5 0-3 2-6 5-6z m-129-70c0-3 2-5 5-5l54 0c26-12 53-18 81-18 28 0 55 6 81 18l54 0c3 0 5 2 5 5l0 38c34 36 52 82 52 131 0 50-18 96-52 131l0 39c0 3-2 4-5 4l-54 0c-19 10-40 14-60 17-2 15-14 27-30 27-16 0-30-14-30-30-14-3-29-7-42-14l-54 0c-3 0-5-1-5-4l0-39c-34-35-52-81-52-131 0-49 18-95 52-131z m87-5l106 0c-34-11-72-11-106 0z m235 174c0-42-15-84-42-117l0 234c27-33 42-74 42-117z m-144 174c-3 2-7 4-11 6 0 0-1 1-1 1 10-2 19-4 27-7z m-47 34c11 0 20-9 20-20 0 0 0-1 0-1 0-1 0-3-1-5 0-2 1-5 3-6 0 0 0 0 1 0 1-1 1-1 2-1 1-1 2-1 3-2 4-1 11-4 17-7 17-8 17-8 18-8 10 0 18-7 20-16l-167 0c2 9 10 16 20 16 0 0 1 0 1 0 0 0 0 0 1 0 1 0 1 0 1 0 2 0 7 2 17 8 1 0 2 1 3 1 0 0 0 0 1 1 1 0 2 1 3 1 2 2 5 3 6 4 1 0 1 0 1 0 1 0 1 0 1 0 1 0 1 0 1 1 1 0 1 0 2 0 1 1 3 2 3 2 2 1 3 3 3 5 0 0 0 1 0 1 0 1-1 2-1 3 0 1 0 2 0 3 0 11 9 20 21 20z m-94-72c1-3 3-4 4-4l179 0c0 0 1 0 1 0 1 0 2 0 2 1 1 0 1 1 1 3l7 0 0-270-202 0 0 270z m-27 29l46 0c0 0-2-1-3-2 0 0-1 0-1 0-1-1-2-2-3-2 0-1-1-1-1-1-1-1-2-2-3-2 0 0-1 0-1-1-1-1-2-2-3-3 0-1 0-1 0-1 0-1 0-3-1-4 0 0 0 0 0-1-1-1-1-2-2-3l-13 0c-3 0-5-2-5-4l0-280c0-3 2-5 5-5l212 0c2 0 4 2 4 5l0 280c0 2-2 4-4 4l-13 0c0 0-1 1-1 1 0 1 0 1 0 2-1 1-1 2-2 3 0 0 0 1-1 1 0 2-1 3-2 4-1 2-3 2-4 3 0 0 0 0-1 1-1 1-2 1-3 2 0 0-1 0-1 1 0 0-1 1-2 1-1 1-1 1-2 1l65 0 0-329-260 0z m-52-165c0 43 15 84 42 117l0-234c-27 33-42 75-42 117z m173 177c5 0 9 5 9 10 0 5-4 9-9 9-6 0-10-4-10-9 0-5 4-10 10-10z m0 10z"/>
<glyph unicode="&#114;" d="M453 272c-25 11-51 9-71-5l0 14c6-1 11-1 18-1 11 0 22 1 31 7 24 14 32 46 32 47 0 6-2 9-6 11-2 0-11 4-26 4-10 0-21-2-29-7-9-6-14-13-20-20l0 20c0 5-4 9-9 9-5 0-9-4-9-9l0-75c-6 3-9 7-15 9-22 73-91 126-168 126-97 0-175-79-175-176 0-96 78-175 175-175 38 0 77 15 108 38 18-22 42-38 64-38 5 0 11 2 16 4 0 0 2 1 4 1 2 0 4-1 4-1 5-2 11-4 16-4 42 0 88 55 106 106 18 55 2 97-46 115z m-42 53c6 4 13 6 20 6 4 0 8 0 10-2-4-7-10-20-20-26-6-3-13-5-21-5-3 0-7 0-9 0 4 9 9 20 20 27z m-221-254l0 28c0 5-3 11-9 11-5 0-9-6-9-11l0-28c-79 4-143 68-146 146l27 0c6 0 9 6 9 9 0 6-3 11-9 11l-27 0c5 77 67 141 146 145l0-28c0-3 4-9 9-9 6 0 9 6 9 9l0 28c62-4 117-44 137-102-11 0-22-2-34-8-48-18-64-60-44-115 5-18 16-37 27-53-24-20-55-31-86-33z m291 93c-18-54-68-104-97-91-2 0-4 2-6 4-1 0-3 1-5 1-2 0-4-1-5-1-2-2-4-4-6-4-27-13-79 37-97 91-18 55 7 81 35 92 27 11 49 5 66-17 0-2 2-2 2-2 0 0 1-1 1-1 0 0 2 0 4 0 2 0 4 0 4 0 0 0 1 1 1 1 0 0 2 0 2 2 17 22 39 28 66 17 28-11 53-37 35-92z m-113-71c0-5-4-9-10-9-22 0-62 38-78 86-2 5 0 11 5 13 6 1 11-2 13-6 15-46 49-75 60-75 6 0 10-3 10-9z m-178 218l0-86c0-4 0-6-2-8l-45-51c-2-2-4-3-6-3-3 0-5 1-7 3-4 4-4 9 0 13l42 49 0 83c0 5 4 9 9 9 6 0 9-4 9-9z"/>
<glyph unicode="&#115;" d="M154 195l35 0 0-35c0-7 7-14 14-14l58 0c7 0 14 7 14 14l0 35 34 0c7 0 12 5 12 11l0 61c0 7-5 11-12 11l-34 0 0 37c0 5-7 12-14 12l-58 0c-7 0-14-7-14-12l0-37-35 0c-7 0-12-4-12-11l0-61c0-6 5-11 12-11z m12 60l37 0c4 0 11 5 11 12l0 37 35 0 0-37c0-7 7-12 12-12l37 0 0-37-37 0c-5 0-12-5-12-12l0-34-35 0 0 34c0 7-7 12-11 12l-37 0z m296 169l-329 0c-7 0-11-4-11-11l0-44-72 0c-7 0-12-5-12-12l0-236c0-7 5-12 12-12l74 0 0-72c0-4 2-9 7-11 2 0 4 0 4 0 5 0 7 0 10 2l109 81 160 0c7 0 11 5 11 12l0 76 37 0c7 0 12 5 12 12l0 204c0 7-5 11-12 11z m-60-292l-153 0c-2 0-5 0-7-2l-93-70 0 61c0 7-7 11-14 11l-74 0 0 214 341 0z m49 88l-26 0 0 137c0 7-4 12-11 12l-269 0 0 32 306 0z"/>
<glyph unicode="&#116;" d="M443 310l-101 0 0 101c0 8-8 13-13 13l-146 0c-5 0-13-5-13-13l0-101-101 0c-7 0-13-8-13-13l0-145c0-5 6-13 13-13l101 0 0-101c0-8 8-13 13-13l146 0c5 0 13 5 13 13l0 101 101 0c7 0 13 8 13 13l0 145c0 5-6 13-13 13z m-13-143l-101 0c-8 0-16-7-16-15l0-101-114 0 0 101c0 8-8 15-16 15l-101 0 0 114 101 0c8 0 16 8 16 16l0 101 114 0 0-101c0-8 8-16 16-16l101 0z"/>
<glyph unicode="&#117;" d="M198 214c21-9 56-11 56-11 0 0 1 0 2 0 1 0 2 0 2 0 0 0 35 2 56 11 0 0 4 1 4 8 0 0-1 32-11 46 0 0-2 3-9 6 0 0-22 7-24 12 0 0-7-18-18-18-11 0-18 18-18 18-2-5-24-12-24-12-7-2-9-6-9-6-10-14-11-46-11-46 0-7 4-8 4-8z m34 95c2-14 13-27 24-27 12 0 23 14 25 27 1 1 2 1 2 5 0 0 3 8-1 8 2 3 6 17-2 26 0 0-3 5-12 7-1 0-1 1-2 1 0 0 1 0 1-1-1 0-1 1-1 1-1 0-1 1-2 2 0 0 1-1 1-2-1 1-2 2-2 2 0 0 0 0 0-1-1 1-5 4-5 7 0 0-1-1-3-3 0 1 0 2 0 2-1 0-3-3-4-5l-1 1c-1 1-4 0-4 0 0 0-12-5-16-17 0 0-2-5 0-20-4 1 0-8 0-8 0-4 1-4 2-5z m112 98l0 16-26 0 0-16-124 0 0 16-26 0 0-16-55 0 0-382 286 0 0 382z m-215-368l0 354 39 0 0-21 26 0 0 21 124 0 0-21 26 0 0 21 39 0 0-354z m34 50l151 0 0-15-151 0z m0 88l195 0 0-15-195 0z m0-30l180 0 0-15-180 0z m0-29l165 0 0-15-165 0z"/>
<glyph unicode="&#118;" d="M53 261l29 0 0-28-29 0z m43-28l28 0 0 28-28 0z m42 0l28 0 0 28-28 0z m-85-45l29 0 0 29-29 0z m43 0l28 0 0 29-28 0z m42 0l28 0 0 29-28 0z m-85-42l29 0 0 28-29 0z m43 0l28 0 0 28-28 0z m42 0l28 0 0 28-28 0z m365 146c0-9-2-21-4-31-3-9-7-16-12-25-5-5-9-12-12-22-5-11-2-52 0-75 0-35-26-68-66-80-2 0-2 0-5 0-2 0-4 0-7 2-2 3-4 5-4 10 0 66-29 110-52 110-26 0-52-44-52-108 0 0 0-2 0-2 0-7-7-15-14-12 0 0-2 0-2 0-26 7-48 23-59 45l-194 0c-7 0-11 4-11 11l0 203c0 7 4 12 11 12l47 0 0 16c0 7 5 12 12 12 7 0 12-5 12-12l0-16 92 0c9 21 24 40 45 52 35 21 82 14 113-14 28 28 75 35 113 14 31-17 49-52 49-90z m-296-165c0 3-3 7-3 12 3 2 3 5 3 7l-26 0 0 28 26 0c2 5 2 10 2 14l-28 0 0 29 23 0c-2 7-7 14-9 19-5 9-12 16-14 28-3 7-5 19-5 28 0 5 2 10 2 14l-87 0 0-12c0-7-5-11-12-11-7 0-12 4-12 11l0 12-35 0 0-179z m273 165c0 28-14 54-38 68-30 19-71 10-92-18-4-5-14-5-19 0-14 18-35 28-56 28-12 0-24-2-35-10-24-14-38-40-38-68 0-7 0-16 2-23 3-8 7-12 10-19 7-7 11-17 14-29 7-18 2-73 2-84 0-19 12-38 35-50 5 68 36 120 76 120 40 0 71-52 75-120 21 12 36 31 36 52 0 9-7 64 0 82 4 12 9 22 14 29 4 7 9 11 9 19 3 7 5 16 5 23z m-45 57c-9 4-19 7-28 7-7 0-12-5-12-12 0-7 5-12 12-12 5 0 9-2 16-5 12-7 19-18 19-35 0-2-2-7-2-14 0 0 0 0-3 0 0-2-2-5-2-7-7-10-14-21-19-35-2-8 0-15 7-17 3 0 3 0 5 0 5 0 9 2 12 7 2 14 9 24 14 31 7 9 7 12 7 12 0 0 2 4 2 4 0 7 3 14 3 19 0 24-12 45-31 57z"/>
<glyph unicode="&#119;" d="M209 295c0-7-4-13-11-13-4 0-8 0-13-2-10-7-17-17-17-30 0-4 2-9 2-11 0 0 0-2 0-2 2-2 2-4 5-6 4-9 12-18 17-33 0-4-2-10-9-12 0 0-2 0-2 0-4 0-9 2-11 6-4 11-8 19-13 26-2 4-6 8-6 10 0 0-2 3-2 5 0 4-2 10-2 17 0 19 10 38 28 49 6 4 15 7 23 7 7 0 11-7 11-11z m186-67l0-165c0-17-13-32-32-32-15 0-26 11-30 24-6-4-13-7-19-9 0 0-2 0-2 0-2 0-7 0-7 2-4 3-6 5-6 9 2 58-22 96-43 96-21 0-45-38-45-94 0-4-2-8-4-11-2-2-7-2-11-2-34 11-58 39-58 71 2 19 4 56 0 64-2 7-6 13-8 20-5 6-11 15-11 23-4 7-4 17-4 26 0 32 17 62 42 77 33 17 73 13 99-13 21 22 51 28 79 19l-15 30c-2 5-2 9 2 13l58 47c5 5 11 3 15-2 5-4 5-10-2-15l-49-40 30-56c0-2 0-4 0-4l0-45c0 0 0 0 0-3 13-4 21-15 21-30z m-75-154c5 0 7 4 11 7l0 147c0 15 9 26 21 30 0 3 0 3 0 3l0 38c-4 4-6 7-10 9-26 15-60 8-77-15-3-5-7-5-9-5-4 0-6 0-9 5-19 23-53 30-79 15-19-11-32-35-32-58 0-7 0-15 2-22 2-4 7-10 9-17 4-6 10-13 13-21 6-19 2-67 0-75 0-17 10-32 30-41 4 58 32 101 66 101 34 0 62-43 64-101z m54 154c0 7-4 11-11 11-6 0-11-4-11-11l0-165c0-4 5-10 11-10 7 0 11 6 11 10z"/>
<glyph unicode="&#120;" d="M63 398c-31 0-55-24-55-55 0-27 19-50 47-53l0-45c0 0 0 0 0-1-10-4-18-12-18-23l0-124c0-13 11-24 26-24 13 0 24 11 24 24l0 124c0 11-6 19-16 23 0 1 0 1 0 1l0 45c26 3 47 26 47 53 0 31-25 55-55 55z m8-301c0-3-3-8-8-8-5 0-8 5-8 8l0 124c0 5 3 8 8 8 5 0 8-3 8-8z m-8 208c-21 0-39 17-39 38 0 21 18 39 39 39 21 0 38-18 38-39 0-21-17-38-38-38z m0 67c-8 0-16-3-21-8-7-6-8-13-8-21 0-16 13-29 29-29 8 0 14 4 21 8 5 7 8 13 8 21 0 16-13 29-29 29z m9-38c-3-2-6-3-9-3-8 0-13 6-13 12 0 4 2 7 3 10 3 2 7 3 10 3 6 0 13-6 13-13 0-3-2-6-4-9z m107 32c-3 3-8 5-12 2l-43-36c-3-1-5-6-3-10l26-46 0-31c0 0 0 0 0-1-10-4-18-12-18-23l0-124c0-13 11-24 26-24 12 0 24 11 24 24l0 124c0 11-7 19-16 23 0 1 0 1 0 1l0 34c0 0 0 2-2 3l-23 42 39 31c3 3 5 8 2 11z m-16-269c0-3-4-8-8-8-5 0-8 5-8 8l0 124c0 5 3 8 8 8 4 0 8-3 8-8z m90 147c0 1 0 1 0 1l0 111c0 5-3 8-8 8l-36 0c-5 0-8-3-8-8 0-5 3-8 8-8l28 0 0-19-28 0c-5 0-8-3-8-8 0-5 3-8 8-8l28 0 0-68c0 0 0 0 0-1-10-4-16-12-16-23l0-124c0-13 11-24 24-24 13 0 24 11 24 24l0 124c0 11-7 19-16 23z m0-147c0-3-3-8-8-8-5 0-8 5-8 8l0 124c0 5 3 8 8 8 5 0 8-3 8-8z m92 147c0 1 0 1 0 1l0 111c0 5-4 8-8 8l-36 0c-3 0-8-3-8-8l0-63c0-4 5-8 8-8l27 0 0-40c0 0 0 0 0-1-9-4-16-12-16-23l0-124c0-13 12-24 24-24 15 0 26 11 26 24l0 124c0 11-8 19-17 23z m-17 104l0-16-17 0 0 16z m-17-46l0 12 17 0 0-12z m34-205c0-3-4-8-8-8-5 0-9 5-9 8l0 124c0 5 4 8 9 8 4 0 8-3 8-8z m159 15c0 1 0 1 0 3l-10 214c0 5-3 8-8 8l-16 0 0 35c0 2 0 4-1 5-2 2-4 3-7 3l-40 0c-5 0-8-3-8-8l0-35-16 0c-5 0-8-3-8-8l-10-217 0-31c0-5 3-8 8-8l108 0c5 0 8 3 8 8l0 29c0 0 0 2 0 2z m-74 252l24 0 0-25-24 0z m-24-43l72 0 8-201-88 0z m-10-232l0 15 92 0 0-15z"/>
<glyph unicode="&#121;" d="M444 313c-7 30-29 53-61 66-21 7-73 14-97-13-10 8-19 11-30 17-18 26-50 44-86 44-57 0-104-46-104-103 0-42 24-77 59-95 4-9 9-16 16-24 18-19 22-30 26-43 0-3 1-10 1-12 6-107 41-118 52-120 2 0 6 0 7 0 6 0 9 0 15 4 18 10 23 46 28 77 2 10 4 21 6 26 1 8 3 11 5 13 2-4 4-7 5-11 0-3 0-11 2-16 2-36 7-88 45-93 2 0 9 0 18 4 16 10 30 41 37 91l2 7c2 20 7 47 22 63 19 19 43 71 32 118z m-360 11c0 46 40 85 86 85 48 0 86-39 86-85 0-49-38-86-86-86-12 0-25 1-36 7-30 14-50 45-50 79z m315-117c-20-19-25-52-27-71l-1-8c-11-67-29-80-34-80 0 0-2 2-2 2-24 2-27 46-29 73-2 7-2 14-2 20-1 5-9 25-23 25-14 2-21-18-23-23-2-8-4-18-6-31-3-23-9-57-21-64-2-2-4-2-7-2 0 2-2 2-2 2 0 0-30 3-36 100 0 4-2 14-2 16-3 18-12 32-30 52 0 0-2 2-2 2 6 0 13-2 18-2 57 0 104 48 104 106 0 10-2 21-4 32 16-9 34-22 54-38 2-2 4-2 5-2 2 0 6 2 8 4 3 4 1 9-2 12-11 9-22 18-32 26 17 14 55 10 73 3 27-9 45-27 50-52 9-37-11-84-27-102z m-236 109l-47 0c0 6 0 11 4 16 4 4 9 9 18 17 5 1 7 5 9 7 2 2 2 5 2 7 0 3 0 7-2 9-2 2-4 2-7 2-4 0-6 0-7-4-2-2-4-5-4-9l-13 0c0 7 2 13 6 18 5 4 11 7 18 7 7 0 12-3 16-7 5-4 7-9 7-16 0-5-2-9-4-13-3-3-7-7-14-10-5-6-11-9-12-11l30 0z m34 0l14 0 0 15 7 0 0 10-7 0 0 45-16 0-25-43 0-12 27 0z m-18 25l2 2 16 29 0-31z m-52-55l0-16-7 0 0 36 7 0 0-15 14 0 0 15 8 0 0-36-8 0 0 16z m57-13l0 6c0 3-1 5-3 7 0 0 0 0-2 0 2 0 2 2 4 2 1 2 3 3 3 7 0 3-2 5-3 7-2 2-6 4-9 4l-18 0 0-36 7 0 0 14 7 0c4 0 5-2 5-2 2 0 2-1 2-3l0-4c0-2 0-2 0-3 0-2 0-2 0-2l9 0c0 0-2 2-2 2 0 0 0 1 0 1z m-7 18c-2-1-3-1-5-1l-9 0 0 8 9 0c2 0 3 0 5-1 0 0 0-2 0-2 0-2 0-4 0-4z m22 7c0 0-2-1-2-3 0-2 2-2 2-2 2-2 3-2 7-2 5-1 9-3 11-5 1-2 3-4 3-7 0-4-2-6-5-7-2-2-6-4-11-4-3 0-7 2-9 4-3 1-5 5-5 9l7 0c0-2 2-4 2-6 2 0 3 0 5 0 4 0 5 0 7 0 0 2 2 2 2 4 0 2-2 2-2 3-2 0-3 0-7 2-5 0-9 2-11 4-1 2-1 3-1 7 0 3 0 5 3 7 2 4 6 4 9 4 5 0 7-2 11-4 2-2 3-4 3-7l-7 0c0 2 0 2-2 3-1 0-3 2-5 2-2 0-3-2-5-2z"/>
<glyph unicode="&#122;" d="M145 236c2-4 6-8 6-12 2-4 2-24 0-42 0-22 17-40 41-48 2 0 2 0 2 0 6-2 12 4 12 10 0 2 0 2 0 2 0 34 14 58 26 58 12 0 26-26 26-58 0-2 0-2 0-2 0-4 2-6 4-8 2-2 4-2 6-2 2 0 2 0 4 0 24 8 40 26 40 50-2 16-2 36 0 40 0 4 2 8 6 12 2 4 6 10 6 16 2 7 4 13 4 19 0 22-12 42-30 54-22 12-48 8-66-6-18 14-46 18-66 6-19-12-31-32-31-54 0-6 2-12 2-19 2-6 6-10 8-16z m31 71c6 2 12 4 18 4 12 0 22-4 30-14 2-2 4-4 8-4 2 0 6 2 8 4 12 14 32 18 48 10 12-8 18-22 18-36 0-4 0-8-2-14 0-3-2-7-4-9-2-6-6-10-8-16-4-12-2-44 0-50 0-8-6-16-14-22-4 38-22 64-46 64-24 0-42-26-46-64-8 6-14 14-14 22 2 6 4 38 0 50-2 6-6 10-8 16-3 2-5 7-7 11 0 4-2 8-2 12 0 14 9 28 21 36z m289 118l-334 0c-4 0-10-6-10-10l0-46-74 0c-6 0-10-6-10-10l0-239c0-6 4-10 10-10l78 0 0-77c0-4 2-6 6-8 2-2 2-2 4-2 2 0 4 2 6 2l113 85 161 0c6 0 12 4 12 10l0 78 38 0c6 0 10 4 10 10l0 207c0 4-4 10-10 10z m-60-295l-155 0c-2 0-4 0-6-2l-99-73 0 65c0 6-4 10-10 10l-78 0 0 219 348 0 0-219z m50 88l-28 0 0 141c0 4-6 10-12 10l-272 0 0 36 312 0z"/>
<glyph unicode="&#65;" d="M492 356l-39 0 0 39c0 7-5 12-12 12l-63 0c-8 0-15-5-15-12l0-39-39 0c-7 0-12-5-12-13l0-65c0-5 5-12 12-12l39 0 0-39c0-8 7-12 15-12l63 0c7 0 12 4 12 12l0 39 39 0c7 0 15 7 15 12l0 65c0 8-8 13-15 13z m-12-66l-39 0c-7 0-12-5-12-12l0-39-39 0 0 39c0 7-8 12-12 12l-42 0 0 41 42 0c4 0 12 5 12 12l0 39 39 0 0-39c0-7 5-12 12-12l39 0z m-287-41c-122 0-183-90-185-95-3-5-3-10 0-12 2-5 63-95 185-95 119 0 233 87 238 90 3 2 5 7 5 9 0 5-2 8-5 10-5 5-119 93-238 93z m-5-166c-34 0-63 29-63 63 0 37 29 66 63 66 36 0 66-29 66-66 0-34-30-63-66-63z m-153 63c12 15 43 52 95 69-18-17-30-42-30-69 0-26 12-48 30-65-52 17-83 51-95 65z m209-70c19 17 34 41 34 70 0 30-15 56-34 71 68-15 131-51 158-71-27-17-90-56-158-70z m-12 70c0-24-20-41-44-41-22 0-41 17-41 41 0 25 19 44 41 44 24 0 44-19 44-44z"/>
<glyph unicode="&#66;" d="M503 220c0 6 0 11-2 16l-85 118c-5 6-10 8-15 8-6 0-11-5-13-10l-27-45c-5-8-2-18 5-24 8-2 19 0 24 8l13 24 58-82-168 0c-5 0-11-2-13-5-3-5-6-10-3-16l0-5-42 0 0 5c3 6 0 11-3 16-2 3-8 5-13 5l-163 0 58 82 13-24c5-8 16-10 24-8 8 6 10 16 5 24l-26 45c-3 5-8 10-13 10-8 0-14-2-16-8l-84-118c-3-3-3-5-3-8 0 0-3 0-3 0-2-5-2-10-2-16l34-105c3-8 8-13 16-13l126 0c8 0 16 5 16 13l23 69 64 0 23-69c0-8 8-13 16-13l126 0c8 0 13 5 16 13l34 105c0 3 0 6 0 8z m-329-92l-102 0-24 71 148 0z m269 0l-105 0-22 71 148 0z"/>
<glyph unicode="&#67;" d="M389 291c0 73-60 133-133 133-73 0-133-60-133-133 0-68 52-125 119-131l0-43-54 0c-8 0-13-5-13-14 0-8 5-13 13-13l54 0 0-54c0-9 6-14 14-14 8 0 14 5 14 14l0 54 54 0c8 0 13 5 13 13 0 9-5 14-13 14l-54 0 0 43c67 6 119 63 119 131z m-239 0c0 57 49 106 106 106 57 0 106-49 106-106 0-57-49-103-106-103-57 0-106 46-106 103z"/>
<glyph unicode="&#68;" d="M126 368l-109 0c-5 0-9-4-9-8l0-290c0-6 4-10 9-10l109 0c5 0 10 4 10 10l0 290c0 4-5 8-10 8z m-9-289l-91 0 0 112 58 0 0 23-58 0 0 13 58 0 0 23-58 0 0 100 91 0z m154 289l-110 0c-5 0-10-4-10-8l0-290c0-6 5-10 10-10l110 0c4 0 8 4 8 10l0 290c0 4-4 8-8 8z m-10-289l-91 0 0 271 91 0z m247 35l-104 271c-1 3-2 5-5 6-2 1-4 1-6 0l-102-40c-5-1-8-7-6-12l104-270c2-4 5-6 8-6 1 0 3 0 4 0l102 40c2 1 4 2 5 5 1 2 1 5 0 6z m-105-31l-43 114 55 21-8 20-55-21-8 20 55 21-7 20-56-21-31 80 86 33 97-254z m-364 249l66 0 0-44-66 0z m144 0l65 0 0-44-65 0z m11-82l44 0 0-120-44 0z m198 68c0-17-14-30-30-30-17 0-30 13-30 30 0 16 13 29 30 29 16 0 30-13 30-29z"/>
<glyph unicode="&#69;" d="M401 348l-36 0 0 22c0 32-27 58-59 58l-101 0c-32 0-58-26-58-58l0-22-37 0c-32 0-58-23-58-55l0-213c0-33 26-59 58-59l291 0c32 0 58 26 58 59l0 213c0 32-26 55-58 55z m-223 22c0 14 13 27 27 27l101 0c15 0 27-13 27-27l0-22-155 0z m171-224l-63 0 0-62-62 0 0 62-62 0 0 77 62 0 0 62 62 0 0-62 63 0z"/>
<glyph unicode="&#70;" d="M163 142l44 0 0-44c0-8 6-14 14-14l70 0c8 0 17 6 17 14l0 44 41 0c8 0 14 6 14 14l0 73c0 8-6 14-14 14l-41 0 0 44c0 5-9 14-17 14l-70 0c-8 0-17-9-17-14l0-44-41 0c-8 0-14-6-14-14l0-73c0-8 6-14 14-14z m15 72l43 0c6 0 15 6 15 15l0 40 40 0 0-40c0-9 9-15 15-15l43 0 0-43-43 0c-6 0-15-6-15-15l0-43-40 0 0 43c0 9-9 15-15 15l-43 0z m310 154l-148 0 0 49c0 6-9 15-17 15l-134 0c-8 0-17-9-17-15l0-49-148 0c-9 0-14-6-14-15l0-313c0-6 5-14 14-14l464 0c9 0 14 8 14 14l0 313c0 9-5 15-14 15z m-284 35l104 0 0-35-104 0z m269-348l-434 0 0 284 434 0z"/>
<glyph unicode="&#71;" d="M88 276c2-2 4-4 7-4l46 2 0-46c0-7 4-11 11-11l71 2c6 0 11 4 11 11l0 44 44 2c7 0 11 5 11 11l0 71c0 2-2 5-4 7-2 2-5 4-7 4l-46-2 0 46c0 7-7 11-11 11l-71-2c-5 0-7 0-9-2-2-2-2-7-2-9l0-44-44-2c-7 0-12-5-12-11l0-71c0-2 3-4 5-7z m62 69c4 0 6 0 9 2 2 2 2 4 2 9l0 44 49 0 0-44c0-2 2-7 4-9 2 0 4-2 7-2l46 0 0-47-44-2c-7 0-13-4-13-11l2-44-49-2 0 46c0 7-7 11-11 11l-46 0 0 47z m312-73c-14 33-31 66-53 93-3 2-7 4-9 4-5 0-7-2-9-4-13-16-27-31-38-47-11-13-20-26-31-39-4-5-4-12 0-16 7-7 14-15 22-24 5-5 9-9 14-16-40-42-102-86-157-110-9 15-16 31-25 44-4 6-8 9-15 6-16-6-31-11-47-17-17-5-37-11-57-20-2 0-4-2-7-7 0-2 0-6 3-9 19-33 44-62 70-81 3 0 5-3 7-3 49 3 137 14 219 78 51 42 88 95 113 159 0 2 0 4 0 9z m-129-151c-73-57-154-70-199-73-20 16-39 38-55 62 13 5 29 11 44 16 11 4 25 9 38 13 9-15 18-31 26-46 3-7 9-7 14-7 64 27 137 80 179 131 4 4 4 8 2 13-7 9-15 18-22 24-4 7-9 11-13 18 6 9 15 20 24 31 9 13 18 24 29 37 15-22 29-46 40-73-23-57-58-106-107-146z"/>
<glyph unicode="&#72;" d="M474 268c-11 0-19-8-19-19l0-31-395 0 0 145c0 11-7 19-19 19-11 0-19-8-19-19l0-281c0-11 8-19 19-19 12 0 19 8 19 19l0 38 395 0 0-38c0-11 8-19 19-19 11 0 19 8 19 19l0 167c0 11-8 19-19 19z m-414-110l0 19 395 0 0-19z m31 102c0 8 7 19 19 19l91 0c7 0 19-11 19-19 0-11-12-23-19-23l-91 0c-12 0-19 12-19 23z"/>
<glyph unicode="&#73;" d="M410 276c-15 0-29-3-42-10l-47 77 52 0c5 0 8 3 8 9 0 5-3 8-8 8l-67 0c-4 0-9-3-9-8 0 0 0 0 0-2 0-2 0-4 2-5l15-26-137 0c-2 0-2 0-2 0l-15 24 31 0c3 0 8 3 8 9 0 5-5 8-8 8l-76 0c-5 0-8-3-8-8 0-6 3-9 8-9l24 0 24-38-22-38c-12 6-26 9-39 9-52 0-95-43-95-96 0-51 43-94 95-94 49 0 89 36 94 84l55 0c2 0 2 0 3 1 2 0 2 2 4 2l72 122 22-38c-22-19-38-46-38-77 0-51 43-94 96-94 52 0 95 43 95 94 0 53-43 96-95 96z m-236 12l61-101-37 0c-4 29-19 56-41 72z m5-101l-65 0 32 56c19-12 31-32 33-56z m-77-84c-43 0-78 34-78 77 0 43 35 77 78 77 10 0 20-2 30-5l-42-69c0-3-2-6 0-10 1-2 5-3 8-3l81 0c-5-38-38-67-77-67z m149 92l-65 107 127 0z m159-92c-42 0-79 34-79 77 0 26 12 46 31 62l42-69c1-2 3-3 6-3 2 0 4 0 6 1 3 2 5 7 1 12l-41 67c10 5 22 7 34 7 43 0 78-34 78-77 0-43-35-77-78-77z"/>
<glyph unicode="&#74;" d="M111 204l0-80c0 0 77 32 145 32 69 0 146-32 146-32l0 81c0 0-74 39-147 39-73 0-144-40-144-40z m372 19l29 16-29 16 0 8c0 0 8 41-38 19-2-1-4-2-4-4l-191 106-250-143 95-43 0 14c0 0 79 44 160 44 81 0 163-43 163-43l0-24 52 28c0-33 0-102 0-114l-17 0 0-40 23 16 26-16 0 40-19 0z m-13 47c0-1 0-4 0-8l-15 8c6 4 15 9 15 0z m-5-45c-6 0-12 5-12 12 0 7 6 12 12 12 7 0 12-5 12-12 0-7-5-12-12-12z"/>
<glyph unicode="&#75;" d="M239 96c0-4-4-11-10-11-50 0-91 42-91 92 0 6 4 10 10 10 6 0 10-4 10-10 0-40 31-69 71-69 6 0 10-6 10-12z m245-69c-2-4-4-4-8-4-2 0-4 0-6 2l-85 67c-17-17-40-27-65-27-6 0-12 0-16 2-23-15-48-23-75-23-75 0-133 60-133 133 0 70 118 247 123 253 2 4 8 6 10 4 2 0 6 0 8-4 2-4 73-104 106-185 40-8 69-45 69-89 0-17-5-33-13-48l83-66c6-4 6-11 2-15z m-207 48c-29 17-48 48-48 81 0 52 39 91 89 93-27 58-70 129-89 156-37-58-112-181-112-228 0-63 50-112 112-112 17 0 33 4 48 10z m114 81c0 39-31 73-71 73-39 0-70-34-70-73 0-37 31-71 70-71 40 0 71 34 71 71z"/>
<glyph unicode="&#76;" d="M329 195c15 0 26 5 33 13 8 9 13 20 13 35 0 15-5 26-13 35-7 8-18 13-33 13-13 0-24-5-30-13-9-9-13-20-13-35 0-15 4-26 13-35 6-8 17-13 30-13z m-17 72c4 4 11 8 17 8 9 0 15-4 20-8 4-7 6-15 6-24 0-11-2-17-6-24-5-6-11-8-20-8-6 0-13 2-17 8-4 7-7 13-7 24 0 9 3 17 7 24z m-50-188c0-7-6-11-13-11-52 0-93 43-93 95 0 7 4 11 11 11 6 0 11-4 11-11 0-41 32-73 71-73 7 0 13-5 13-11z m156 166c0 50-41 89-89 89-4 0-9 0-11 0-58 99-65 99-71 97-2 0-4-2-7-4-4-9-129-193-129-264 0-78 62-138 138-138 78 0 139 60 139 138 0 4 0 11 0 17 17 15 30 39 30 65z m-24 0c0-37-28-67-65-67-37 0-67 30-67 67 0 37 30 67 67 67 37 0 65-30 65-67z m-28-82c0-65-52-117-117-117-63 0-115 52-115 117 0 50 76 177 115 238 11-15 28-43 46-74-33-13-55-45-55-82 0-47 39-88 89-88 13 0 26 4 37 8 0 0 0-2 0-2z"/>
<glyph unicode="&#77;" d="M254 75c0-6-6-11-13-11-51 0-92 43-92 95 0 6 4 10 11 10 6 0 11-4 11-10 0-41 32-73 70-73 7 0 13-5 13-11z m41 122l-9 0 0 92 43 0c9 0 15-2 22-6 4-4 6-11 6-17 0-9-2-13-9-17 0 0-2-3-2-3 2 0 5-2 7-2 4-4 8-10 8-17 0-11-4-17-8-21-7-7-15-9-26-9z m8 56l22 0c4 0 8 0 11 2 2 2 4 4 4 9 0 2-2 6-4 6-3 2-7 2-11 2l-22 0z m0-39l24 0c4 0 9 0 11 2 2 3 4 7 4 11 0 2-2 7-4 9-2 0-7 2-11 2l-24 0z m75-38c0-7 0-13 0-17 0-78-60-138-137-138-75 0-137 60-137 138 0 70 124 252 129 261 2 2 4 4 6 4 7 2 13 2 71-96 2 0 6 0 11 0 47 0 87-39 87-88 0-26-12-49-30-64z m-57 130c-37 0-67-30-67-66 0-36 30-66 67-66 36 0 64 30 64 66 0 36-28 66-64 66z m36-145c-11-5-24-9-36-9-50 0-88 41-88 88 0 36 21 69 53 81-17 30-34 58-45 73-38-60-113-186-113-235 0-65 51-116 113-116 65 0 116 51 116 116 0 0 0 2 0 2z"/>
<glyph unicode="&#78;" d="M271 212l4 0 5 11 19 0 4-11 11 0-17 51-13 0-19-51z m19 41l7-22-15 0z m54-41c6 0 11 2 15 4 2 2 4 7 4 13 0 4-2 7-4 9-2 2-2 2-4 2 2 0 2 0 2 0 4 4 4 6 4 11 0 4 0 6-4 10-2 2-7 2-11 2l-26 0 0-51z m-13 43l13 0c2 0 4 0 6-2 0 0 2-2 2-2 0-3-2-5-2-7-2 0-4 0-6 0l-13 0z m0-19l13 0c4 0 6-3 6-3 2-2 2-2 2-4 0-4 0-4-2-6 0-2-2-2-6-2l-13 0z m-77-163c0-7-7-11-13-11-51 0-92 43-92 94 0 7 4 11 11 11 6 0 10-4 10-11 0-40 32-73 71-73 6 0 13-4 13-10z m154 165c0 49-41 88-88 88-4 0-8 0-10 0-58 98-65 98-71 96-2 0-4-2-7-4-4-9-128-191-128-262 0-77 62-137 137-137 77 0 137 60 137 137 0 5 0 11 0 17 17 15 30 39 30 65z m-23 0c0-37-28-67-65-67-36 0-66 30-66 67 0 36 30 66 66 66 37 0 65-30 65-66z m-28-82c0-64-52-115-116-115-62 0-114 51-114 115 0 50 75 176 114 236 11-15 28-43 45-73-32-13-54-45-54-81 0-47 39-88 88-88 13 0 26 4 37 8 0 0 0-2 0-2z"/>
<glyph unicode="&#79;" d="M254 79c0-7-7-11-13-11-51 0-92 43-92 94 0 7 4 11 11 11 6 0 10-4 10-11 0-40 32-73 71-73 6 0 13-4 13-10z m34 122l-11 0 33 92 23 0 32-92-21 0-7 19-34 0-4-19z m22 34l23 0-13 36z m68-56c0-6 0-12 0-17 0-77-60-137-137-137-75 0-137 60-137 137 0 71 124 253 128 262 3 2 5 4 7 4 6 2 13 2 71-97 2 0 6 0 10 0 47 0 88-38 88-87 0-26-13-50-30-65z m-58 131c-36 0-66-30-66-66 0-37 30-67 66-67 37 0 65 30 65 67 0 36-28 66-65 66z m37-146c-11-4-24-8-37-8-49 0-88 41-88 88 0 36 22 68 54 81-17 30-34 58-45 73-39-60-114-187-114-236 0-64 52-115 114-115 64 0 116 51 116 115 0 0 0 2 0 2z"/>
<glyph unicode="&#80;" d="M470 354l-74 73-324-326-7-81 34 3 46 4z m-20 0l-21-22-54 53 21 21z m-340-234l240 239 8-8-240-240z m258 221l18-20-239-238-19 18z m28-30l6-6-238-239-6 5z m-36 58l5 6 54-54-6-6z m-280-332l2 5 4-5z m24 2l-21 21 3 36 14 14 52-54-14-14z"/>
<glyph unicode="&#81;" d="M332 181c-3 3-10 3-13 3-5 0-8 0-9 1-5 2-13 7-26 18 13 12 21 16 24 18 3 2 6 2 10 2 3 0 8-2 11 1 3 2 5 2 6 4 7 6 10 16 9 24-2 5-4 8-7 11-3 3-8 5-11 7-2 5-4 9-7 13-3 3-6 5-11 6-5 2-18 0-24-5-2-1-4-5-4-6-3-3-3-8-3-13 0-3 0-8-2-10-1-5-6-11-17-24-12 13-17 19-18 24-2 2-2 7-2 10 0 5 0 10-3 13-2 1-3 5-5 6-6 5-16 8-24 5-4-1-7-3-10-6-3-4-5-8-6-13-5-2-9-4-13-7-2-3-5-6-5-11-2-8 0-18 6-24 2-2 5-2 7-4 3-1 6-1 9-1l5 0c3 0 5 0 7-2 5-2 13-6 24-18-13-11-19-16-24-18-4-1-7-1-10-1-5 0-10 0-13-3-3-2-5-4-6-5-7-7-9-15-5-25 1-3 3-6 6-9 3-4 8-5 13-7 0-5 3-8 7-11 3-3 6-5 11-7 2 0 3 0 5 0 6 0 13 2 18 7 1 1 3 5 5 6 1 3 1 8 1 13 0 3 0 7 2 10 1 3 5 11 18 24 11-13 16-21 17-24 2-3 2-7 0-10 0-5 0-10 4-13 0-1 1-5 3-6 5-5 11-7 18-7 3 0 5 0 6 0 4 2 8 4 12 7 3 3 4 6 6 11 5 2 10 3 13 7 3 3 5 6 7 9 3 10 0 18-5 25-4 1-5 3-7 5z m-44 69c2 5 2 10 2 13 0 3 0 7 2 8 0 2 1 2 1 4 4 1 7 3 12 1 1 0 3-1 5-3 1-2 3-5 1-8 0-2 2-5 2-7 1 0 3-1 6-1 3 0 7 0 8-3 2-2 2-4 4-5 0-4-2-8-4-10-1-2-1-2-3-3-2 0-5 0-6 0-5 0-10 0-15-2-8-3-16-10-29-21l-7 6c0 2 0 2 0 2 10 11 18 21 21 29z m-61-94c-2-5-2-10-2-13 0-1 0-5-1-6 0-2 0-2-2-4-2-3-7-3-10-3-1 0-3 2-5 3-3 2-5 5-3 9 0 1-2 3-3 4-2 2-3 4-5 2-2-2-6 2-10 3 0 2-1 4-1 5-2 3-2 8 1 12 2 0 2 1 4 1 1 2 4 2 6 2 5 0 10 0 15 1 8 4 17 12 29 23 0-1 1-1 1-1l7-7c-11-13-18-23-21-31z m104 0c0-1-2-3-4-5-1-1-5-3-8-3-3 2-5 0-6-2-2-1-2-3-2-4 0-2-1-7-3-9-2-1-3-3-5-3-3 0-8 0-11 3 0 2 0 2-2 4 0 1 0 5 0 6 0 3 0 8-2 13-3 12-14 25-30 41l-7 6c-18 16-31 28-40 31-4 2-9 2-12 2l-5 0c-1 0-3 0-3 0-1 1-3 1-3 3-3 2-5 6-3 10 0 1 1 3 3 5 2 1 5 3 8 3 2 0 3 1 5 1 1 2 1 5 1 7 0 3 2 6 4 8 1 2 3 3 5 3 1 0 8 0 9-1 2-2 2-2 4-4 0-1 0-5 1-8 0-3 0-8 2-13 3-9 14-22 31-39l6-8c18-16 31-26 41-31 3-1 8-1 13-1 3 0 6 0 8-2 0 0 1-1 1-1 4-4 5-9 4-12z m-231-58l312 0c3 0 6 3 6 8l0 198c0 3-3 6-6 6l-312 0c-3 0-6-3-6-6l0-198c0-5 3-8 6-8z m7 199l298 0 0-185-298 0z m391 55l-484 0c-5 0-8-3-8-6 0-3 3-7 8-7l39 0 0-254c0-15 13-28 28-28l350 0c15 0 28 13 28 28l0 254 39 0c5 0 8 4 8 7 0 3-3 6-8 6z m-52-267c0-7-7-13-15-13l-350 0c-8 0-15 6-15 13l0 254 380 0 0-254z m-440 285c0 5 3 8 8 8l484 0c5 0 8-3 8-8 0-3-3-6-8-6l-484 0c-5 0-8 3-8 6z"/>
<glyph unicode="&#82;" d="M94 118c56-1 105-9 140-24 1 0 2 0 2 0 1 0 2 0 3 0 1 1 2 3 2 5l0 267c0 2-1 4-3 4l-142 57c-1 1-3 0-4-1-2 0-3-2-3-4l0-299c0-3 3-5 5-5z m407 261c-1 1-3 2-5 1l-50-15c-2 0-3-2-3-5l0-258c0 0 0-4-4-4-5 0-8 0-8 0-41 0-116-4-165-32l-10-6-10 6c-49 28-124 32-165 32 0 0-8 0-10 0-2 0-2 3-2 3l0 259c0 3-1 5-3 5l-50 15c-2 1-4 0-5-1-1 0-2-2-2-4l0-312c0-1 1-3 2-4 1-1 2-1 4-1 15 2 38 3 64 3 58 0 105-8 135-24 4-2 30-16 42-16 12 0 38 14 42 16 4 2 77 24 135 24 26 0 50-1 64-3 2 0 3 0 4 1 1 1 2 3 2 4l0 312c0 2-1 4-2 4z m-228-285c1 0 2 0 3 0 0 0 1 0 2 0 35 15 84 23 140 24 2 0 5 2 5 5l0 299c0 2-1 4-3 4-1 1-3 2-4 1l-142-57c-2 0-3-2-3-4l0-267c0-2 1-4 2-5z"/>
<glyph unicode="&#83;" d="M496 358l-64 0c-43 19-80 29-109 29-38 0-57-16-66-29l-2 0c-9 13-28 29-66 29-29 0-66-10-109-29l-64 0c-3 0-6-2-6-6l0-285c0-3 3-6 6-6l206 0c10-14 28-16 33-16 0 0 1 0 1 0 0 0 1 0 1 0 5 0 23 2 33 16l206 0c3 0 6 3 6 6l0 285c0 4-3 6-6 6z m-235-18c1 0 1 1 1 3 0 0 0 0 1 0 0 1 0 2 1 3 2 4 4 8 9 12 9 9 24 17 50 17 21 0 47-6 76-17 10-3 20-7 30-12 11-4 22-9 33-15l0-229c-23 11-89 40-142 40-29 0-47-10-57-22-1 0-1-1-2-1z m180-242l-178 0c8 21 27 32 57 32 41 0 91-19 121-32z m-358 248c10 5 20 9 30 12 29 11 55 17 76 17 26 0 41-8 50-17 5-4 7-8 9-12 1-1 1-2 1-3l0-223c-10 12-28 22-57 22-53 0-118-29-142-40l0 229c11 6 22 11 33 15z m166-248l-178 0c30 13 80 32 121 32 30 0 49-11 57-32z m241-25l-204 0c-1 0-3-1-4-3-2-6-10-11-19-13-3-1-5-1-8-1-2 0-4 0-6 1-11 1-19 7-20 15-1 1-2 1-3 1l-204 0 0 273 33 0c-5-2-9-4-14-6-2-1-3-3-3-6l0-242c0-1 0-2 1-3 0-1 1-1 2-2 1-1 2-1 2-1 1 0 1 0 1 0l196 0c3 1 6 1 9 1 1 0 1 0 2 0 0 0 1 0 1 0 1 0 1 0 1 0 1 0 2 0 2 0 2 0 3 0 4 0 0 0 0 0 1 0 0 0 1 0 1 0 0 0 1 0 2 0 2 0 5-1 8-1l197 0c0 0 0 0 1 0 0 0 1 0 2 1 1 1 2 1 2 2 1 1 1 2 1 3l0 242c0 3-1 5-3 6-5 2-9 4-14 6l33 0z"/>
<glyph unicode="&#84;" d="M501 362c0 2-1 4-2 5 0 1-1 2-2 3-71 52-170 80-239 16-69 64-168 36-237-16-1-1-2-2-3-3-1-1-1-3-1-5 1-86-2-173-2-258 0-1 0-3 0-4-1-7 4-14 12-11 73 29 156 35 223-11 1-3 5-6 8-5 4-1 7 2 9 5 67 46 150 40 223 11 8-3 13 4 11 11 1 1 1 3 1 4 0 85-3 172-1 258z m-243-269c-67 47-151 44-225 18 0 83 3 165 1 248 64 45 155 72 217 8 3-2 5-2 7-2 3 0 5 0 7 2 63 64 154 37 218-8-2-83 0-165 1-248-75 26-159 29-226-18z m236-17c-76 31-182 42-238-24-56 66-162 55-237 24-14-5-2-24 11-19 68 28 171 41 216-29 3-4 7-5 10-5 4 0 8 1 10 5 46 70 148 57 217 29 14-5 25 14 11 19z m-430 205c2-4 6-6 11-3 12 7 25 14 40 16 4 1 6 5 5 8 0 1 0 2 0 2l0 45c0 6-4 9-9 8-1 1-1 1-2 1-16-1-32-5-45-15-2-2-3-5-3-7 0-1 0-2 0-2-2-16-2-30-2-45 0-5 2-7 5-8z m12 51c9 5 18 8 28 9l0-33c-10-3-19-7-29-11 0 11 0 24 1 35z m75 7c19 6 38 5 56-6 9-5 17 9 8 14-21 13-45 16-68 8-10-4-6-19 4-16z m-1-34c19 4 38 1 54-10 9-5 17 8 9 14-21 13-44 16-67 12-11-4-7-18 4-16z m70-46c-53 30-115 18-163-15-8-6-1-19 7-13 44 29 100 41 149 14 8-5 16 8 7 14z m0-38c-53 30-115 19-163-14-8-6-1-20 7-13 44 28 100 41 149 14 8-5 16 8 7 13z m0-37c-53 30-115 19-163-14-8-5-1-20 7-14 44 29 100 42 149 15 8-5 16 8 7 13z m70 55c45 31 102 23 149-3 8-4 15 10 6 14-51 29-114 35-164 1-8-5 1-18 9-12z m3-37c46 31 102 24 149-2 8-5 15 9 6 14-51 28-114 34-164 0-8-5 1-18 9-12z m-3 110c45 31 102 24 149-2 8-5 15 9 6 15-51 29-114 35-164 1-8-7 1-19 9-14z m-6-23c-8-6 1-19 9-13 46 31 102 23 149-3 8-4 15 9 6 14-51 29-114 36-164 2z m167-112c-50 29-113 35-164 1-8-6 1-19 9-13 46 31 102 23 149-2 8-6 15 9 6 14z"/>
<glyph unicode="&#85;" d="M406 27c-18 8-38 11-61 11-55 0-107-21-123-28l0 101 7-8 0 152c28 23 62 36 101 37l8 13c-46 0-86-14-118-42-33 28-72 42-118 42-43 0-76-12-77-13l-4-1 0-26c-13-2-21-7-21-14 0-37 0-262 0-262l193 0c7-6 16-10 27-10 11 0 21 4 28 10l188 0c0 0 0 247 0 262l-30-62z m-188-17c-16 6-71 27-127 27-22 0-41-3-57-9l0 254c9 3 35 11 68 11 42 0 79-13 108-38l0-152 8 8z m-160 238l3-9c65 17 124-15 124-15l5 8c-2 2-62 35-132 16z m0-28l3-10c65 17 124-15 124-15l5 9c-2 1-62 34-132 16z m0-27l3-10c65 17 124-15 124-15l5 9c-2 1-62 34-132 16z m0-30l3-9c65 17 124-15 124-15l5 8c-2 2-62 35-132 16z m0-27l3-10c65 17 124-15 124-15l5 9c-2 1-62 34-132 16z m0-28l3-10c65 17 124-15 124-15l5 9c-2 1-62 34-132 16z m0-28l3-10c65 17 124-15 124-15l5 9c-2 1-62 34-132 16z m377 391l-30-63-95-195-8-102 81 65 95 196 31 63z m-58-289l-46-37-18 8 5 58 4 9 8-30 19 12 4-23 28 9z m100 223l-46 22 11 23 46-22z"/>
<glyph unicode="&#86;" d="M469 303c-2 15-2 41 12 49 0 1 0 1 0 1 12 4 20 9 14 16l-169 51-274-38c0 0-32-5-29-53 2-27 10-40 17-46l-22-7c-6-7 2-12 13-16 0 0 0 0 1 0 14-9 13-35 11-50-50-15-32-19-32-19l11-3c-8-7-15-20-14-45 3-49 29-53 29-53l179-58 270 66c0 0 18 4-32 19-2 15-2 41 12 49 0 1 0 1 0 1 12 4 20 9 14 16l-12 3c8 5 19 17 21 50 1 22-4 35-11 42l23 6c0 0 18 4-32 19z m-226 0l45 10 154 31 23 5c-7-13-7-32-6-44 0-2 1-5 1-6l-25-7-194-48z m-195-47l22-5 148-30 13-3 39-8 1-59-199 50-19 5c0 1 0 4 0 6 2 12 2 31-5 44z m-9 75c-1 13 2 22 6 27 3 3 7 4 9 4 2 0 2-1 3-1l176-57-2-60-165 46-8 3c-1 0-1 0-1 0-1 0-17 2-18 38z m177-273l-173 49c-1 0-1 0-2 0 0 0-17 2-17 38-1 13 2 22 6 27 3 3 7 4 9 4 1 0 2-1 2-1l177-57z m228 61c0-2 1-5 1-6l-219-55 2 59 47 10 7-2 25 9 120 24 23 5c-8-13-7-32-6-44z m12 81c0 0-1 0-1 0l-17-5-157-44-2 60 52 17 125 40c0 0 6 2 11-3 5-5 7-14 7-27-1-36-17-38-18-38z"/>
<glyph unicode="&#87;" d="M361 420l0-386 119 0 0 386z m102-370l-86 0 0 354 86 0z m-12 297l-60 0 0 16 60 0z m0-27l-60 0 0 16 60 0z m-60-210l60 0 0-17-60 0z m-156 293l-111 25-86-376 115-27 82 358 0-354 118 0 0 387-118 0z m-94-358l-84 19 79 345 84-19z m110 355l86 0 0-219-86 0z m14-262l0 15 60 0 0-15z m60-10l0-16-60 0 0 16z m-74-44l86 0 0-38-86 0z m14 279l59 0 0-16-59 0z m-163-195l45 196 14-3-45-197z m29-7l46 196 14-3-44-197z"/>
<glyph unicode="&#88;" d="M267 301l0 14 21 0c7 0 11 4 11 11 0 5-4 11-11 11l-21 0 0 7c19 5 30 21 30 39 0 21-18 41-41 41-23 0-41-20-41-41 0-18 11-34 30-39l0-7-21 0c-7 0-11-6-11-11 0-7 4-11 11-11l21 0 0-14c-46-5-78-34-78-75l0-7c0-28 14-60 71-64l7 0 0-80c-12 2-23 7-39 36-5 5-12 7-16 5-7-5-9-11-5-16 21-39 41-46 60-48l0-21c0-6 4-13 11-13 7 0 11 7 11 13l0 21c14 2 26 9 35 16 13 11 20 27 20 43 0 0 0 3 0 3-2 34-23 54-55 61l0 103c30-5 55-27 55-52 0-7 5-14 12-14 6 0 11 7 11 14 0 38-34 70-78 75z m-29 82c0 9 9 16 18 16 9 0 18-7 18-16 0-11-9-18-18-18-9 0-18 7-18 18z m2-205c-43 4-50 25-50 41l0 7c0 27 23 47 55 52l0-100z m57-64c0 0 0-3 0-3 0-9-2-18-11-25-5-4-12-9-19-9l0 75c16-4 30-15 30-38z"/>
<glyph unicode="&#89;" d="M304 286c-3 3-5 6-8 9-5-5-10-8-17-11 7-8 13-17 21-23 9-6 19-9 29-10 9-1 17 1 24 5-6 1-11 3-15 5-14 6-25 15-34 25z m65-9c-15 6-28 15-40 25-5 4-9 8-14 12-4-7-10-12-16-17 3-3 5-5 7-8 10-10 21-18 34-23 12-5 26-7 39-6 7 0 14 0 20 3 4 2 8 4 10 8-14-1-28 1-40 6z m29 23c-16 5-32 12-47 21-8 4-15 8-22 13 0-1-1-1-1-2-3-5-7-11-11-16 5-3 10-7 14-11 12-9 25-18 40-23 14-5 29-7 44-4 8 1 15 3 20 7 5 3 8 8 10 12-16-3-32-1-47 3z m22 28c-18 3-35 9-52 15-10 3-19 7-28 10-3-5-6-11-9-17 7-4 14-8 22-12 15-8 30-15 47-19 16-4 33-5 49 0 7 2 15 6 21 11 4 4 8 10 8 16-1-1-3-1-4-2-18-6-37-5-54-2z m88 78c-7-10-18-17-30-22-2-1-4-1-7-2-6-1-13-2-21-2-7 0-16 0-25 1-8 1-17 3-27 5-9 3-18 7-27 11l-4 1-3 2c-3 1-5 2-7 4-5 2-10 4-16 6-3 1-6 1-10 2-3 0-7-1-10-2-2-1-4-2-6-4-1-1-2-3-3-4-2-3-3-6-4-9-1-6-2-12-2-17 0-5-1-10-1-15 0-10-1-19-3-28-2-8-4-16-8-22-2-4-4-6-6-9-2-3-4-5-7-7-4-4-9-7-13-10-3-1-5-2-7-3l0 68c13 3 23 14 23 28 0 15-13 28-28 28-15 0-28-13-28-28 0-14 10-25 23-28l0-68c-2 1-4 2-7 3-4 3-9 6-13 10-3 2-5 4-7 7-2 3-4 5-6 9-2 4-6 14-8 22-2 9-3 18-3 28 0 5-1 10-1 15 0 5-1 11-2 17-1 3-2 6-4 9-1 1-2 3-3 4-2 2-4 3-6 4-3 1-7 2-10 2-4-1-7-1-10-2-6-2-11-4-16-6-2-2-4-3-7-4l-3-2-4-1c-9-4-18-8-27-11-10-2-19-4-28-5-8-1-17-1-24-1-8 0-15 1-21 2-3 1-5 1-7 2-12 5-23 12-30 22-1-5 0-11 1-16 2-8 9-15 16-20 16-9 35-11 54-11 29 0 59 4 88 11 0 1 0 2-1 4-2 5-4 10-6 15 2 1 4 2 5 2 5 3 9 5 14 6 4 1 9 1 11 0 1 0 2-1 3-2 0-2 1-4 2-6 1-4 1-9 2-14 0-5 1-10 1-15 1-5 1-10 2-15 1-5 2-10 3-14 2-5 3-9 5-13 2-4 4-8 7-12 2-3 5-6 8-9 3-2 6-5 8-7 6-3 11-6 16-7 3-1 6-2 8-2l0-3c-3 1-7 2-8 2-2 1-5 2-7 3-5-9-11-17-19-24 12-2 25-2 32 7 1 1 2 2 2 3l0-12c-2 0-4 0-7 0-6-1-8-7-10-8-12-10-30-20-25-36 4-15 21-19 34-24-9-4-25-10-25-20 0-12 13-17 22-21-7-4-16-8-16-16 0-8 8-12 15-16-6-3-11-7-11-13 0-7 6-11 12-14-5-2-8-5-8-10 0-7 6-10 11-13-3-3-7-6-7-10 1-9 15-15 15-15l0-5 10 0 0 5c0 0 14 6 15 15 0 4-4 7-7 10 5 3 11 6 11 13 0 5-4 8-8 10 6 3 12 7 12 14 0 6-6 10-12 13 8 4 15 8 16 16 0 8-9 12-16 16 9 4 22 9 22 21 0 10-16 16-25 20 13 5 30 9 34 24 5 16-14 26-26 36-1 1-3 7-9 8-3 0-5 0-7 0l0 12c0-1 1-2 2-3 7-9 20-10 32-7-8 7-14 15-19 24-2-1-5-2-7-3-1 0-5-1-8-2l0 3c2 0 5 1 8 2 4 1 10 4 15 7 3 2 6 5 9 7 3 3 6 6 8 9 2 4 5 8 7 12 2 4 3 8 5 13 1 4 2 9 3 14 1 5 1 10 2 15 0 5 1 10 1 15 1 5 1 10 2 14 1 2 2 4 2 6 1 1 2 2 3 2 2 1 7 1 11 0 5-1 9-3 14-6 1 0 3-1 5-2-2-5-4-10-6-15-1-2-1-3-1-4 29-7 59-11 88-11 19 0 38 2 54 11 7 5 14 12 16 20 1 5 2 11 1 16z m-290-188c4 14 24 20 33 32l0-54c-9 4-36 10-33 22z m10-49c1 3 8 6 11 7 4 2 12 7 12 7l0-30c0 0-25 10-23 16z m6-37c1 3 7 5 9 6 3 2 6 3 8 4l0-21c-5 2-18 8-17 11z m3-29c1 1 6 4 8 5 2 1 4 2 6 3l0-17c-4 2-15 7-14 9z m12-50c-1 1-2 2-2 3 0 0-1 0-1 0 1 1 3 2 4 3 0 0 1 1 1 1l0-8c0 0-1 1-2 1z m16 3c-1-1-2-2-2-3-1 0-2-1-2-1l0 8c0 0 1-1 1-1 1-1 3-2 4-3-1 0-1 0-1 0z m-4 17l0 11c1-1 9-3 9-5 0-3-8-5-9-6z m-19 6c0 2 8 4 9 5l0-11c-2 1-10 4-9 6z m33 24c0-2-10-7-14-9l0 17c2-1 4-2 6-3 2-1 7-4 8-5z m3 29c1-3-12-9-17-11l0 21c2-1 5-2 8-4 2-1 8-3 9-6z m-5 44c3-1 10-4 11-7 2-6-23-16-23-16l0 30c0-1 8-5 12-7z m21 42c3-12-24-18-33-22l0 54c9-12 29-18 33-32z m200 147c-17-10-37-12-57-12-30 1-60 7-90 15 0-1-1-2-1-3-2-3-3-6-5-9 10-3 19-7 28-10 17-5 34-10 51-13 18-3 36-3 52 3 7 3 15 8 20 14 5 5 6 11 5 17-1-1-2-1-3-2z m-261-81c-7 3-12 6-17 11-3-3-5-6-8-9-9-10-20-19-34-25-4-2-9-4-15-5 7-4 16-6 24-5 10 1 20 4 29 10 8 6 14 15 21 23z m-27 5c2 3 4 5 7 8-6 5-12 10-16 17-5-4-9-8-14-12-12-10-25-19-40-25-12-5-26-7-40-6 2-4 6-6 10-8 6-3 13-3 20-3 13-1 27 1 39 6 13 5 24 13 34 23z m-65-7c15 5 28 14 40 23 4 4 9 8 14 11-4 5-8 11-11 16 0 1-1 1-1 2-7-5-14-9-22-13-15-9-31-16-47-21-15-4-31-6-47-3 2-4 5-9 10-12 5-4 12-6 20-7 15-3 30-1 44 4z m-29 23c17 4 32 11 47 19 8 4 15 8 22 12-3 6-6 12-9 17-9-3-18-7-28-10-17-6-34-12-52-15-17-3-36-4-54 2-1 1-3 1-4 2 0-6 4-12 8-16 6-5 14-9 21-11 16-5 33-4 49 0z m-20 28c17 3 34 8 51 13 9 3 18 7 28 10-2 3-3 6-5 9 0 1-1 2-1 3-30-8-60-14-90-15-20 0-40 2-57 12-1 1-2 1-3 2-1-6 0-12 5-17 5-6 13-11 20-14 16-6 34-6 52-3z"/>
<glyph unicode="&#90;" d="M498 259l-156 0 0 112c0 4-2 9-7 9l-160 0c-3 0-7-5-7-9l0-129-30 0 0 13c0 4-3 7-7 7-4 0-7-3-7-7l0-13-61 0 0 13c0 4-3 7-7 7-4 0-7-3-7-7l0-13-35 0c-5 0-8-4-8-7l0-147c0-5 3-9 8-9l321 0c2 0 2 1 2 1 0 0 1-1 1-1l160 0c5 0 8 4 8 9l0 164c0 4-3 7-8 7z m-477-31l28 0 0-10c0-4 3-7 7-7 4 0 7 3 7 7l0 10 61 0 0-10c0-4 3-7 7-7 4 0 7 3 7 7l0 10 30 0 0-133-147 0z m307-133l-144 0 0 137c0 2 0 2 0 3 0 0 0 0 0 1l0 128 144 0z m163 0l-149 0 0 150 149 0z m-245 195l-38 0 0 39 38 0z m58 0l-39 0 0 39 39 0z m-58-54l-38 0 0 39 38 0z m58 0l-39 0 0 39 39 0z m-58-55l-38 0 0 40 38 0z m58 0l-39 0 0 40 39 0z m-58-54l-38 0 0 40 38 0z m58 0l-39 0 0 40 39 0z m102 48l-39 0 0 40 39 0z m58 0l-39 0 0 40 39 0z m-97-55l0 40 39 0 0-40z m97 0l-39 0 0 40 39 0z m-78 169l0 67c0 2 3 7 8 7 4 0 7-5 7-7l0-26 44 0 0 26c0 2 2 7 7 7 4 0 7-5 7-7l0-67c0-4-3-7-7-7-5 0-7 3-7 7l0 25-44 0 0-25c0-4-3-7-7-7-5 0-8 3-8 7z m-311-104l48 0 0-10-29-58-17 0 29 56-31 0z"/>
<glyph unicode="&#48;" d="M427 281l49 0 0-12-49 0z m-95 0l49 0 0-12-49 0z m-103 0l50 0 0-12-50 0z m-94 0l49 0 0-12-49 0z m-102 0l49 0 0-12-49 0z m418 137l0 19-35 0 0-19-56 0 0 19-36 0 0-19-41 0 0 19-36 0 0-19-58 0 0 19-35 0 0-19-57 0 0 19-35 0 0-19-62 0 0-402 513 0 0 402z m-389-22l0-23c-3-4-5-9-5-15 0-13 10-24 23-24 13 0 24 11 24 24 0 6-3 12-7 16l0 22 57 0 0-26c-4-4-6-10-6-15 0-13 10-24 23-24 13 0 24 11 24 24 0 5-2 11-6 15l0 26 58 0 0-26c-3-4-5-10-5-15 0-13 10-24 23-24 13 0 24 11 24 24 0 5-3 11-6 15l0 26 41 0 0-26c-3-4-5-10-5-15 0-13 10-24 23-24 13 0 24 11 24 24 0 5-3 11-6 15l0 26 56 0 0-26c-4-4-6-10-6-15 0-13 11-24 24-24 13 0 23 11 23 24 0 5-2 11-6 15l0 26 40 0 0-148-469 0 0 148z m-40-205l83 0 0-45-83 0z m92 0l91 0 0-45-91 0z m97 0l92 0 0-45-92 0z m100 0l92 0 0-45-92 0z m97 0l83 0 0-45-83 0z m83 6l-83 0 0 46 83 0z m-88 0l-92 0 0 46 92 0z m-100 0l-92 0 0 46 92 0z m-98 0l-91 0 0 46 91 0z m-100 0l-83 0 0 46 83 0z m-83-57l83 0 0-46-83 0z m92 0l91 0 0-46-91 0z m97 0l92 0 0-46-92 0z m100 0l92 0 0-46-92 0z m97 0l83 0 0-46-83 0z m-386-102l0 51 469 0 0-51z"/>
<glyph unicode="&#49;" d="M282 109c0-5-3-9-9-9l-8 0 0-8c0-5-3-9-9-9-6 0-9 4-9 9l0 8-8 0c-6 0-9 4-9 9 0 6 3 10 9 10l8 0 0 7c0 6 3 10 9 10 6 0 9-4 9-10l0-7 8 0c6 0 9-4 9-10z m125 83l0-134c0-3-6-9-9-9l-33 0 0-25-45 0 0 25-128 0 0-25-45 0 0 25-33 0c-3 0-9 6-9 9l0 134c0 76 59 123 151 123 92 0 151-47 151-123z m-21 0c0 64-49 104-130 104-81 0-130-40-130-104l0-122 260 0z m-15 0l0-37c0-4-4-10-9-10l-212 0c-5 0-9 6-9 10l0 37c0 57 41 89 115 89 74 0 115-32 115-89z m-19 0c0 57-53 68-96 68-43 0-96-11-96-68l0-26 192 0z m-175-66c-10 0-17-7-17-17 0-9 7-19 17-19 11 0 19 10 19 19 0 10-8 17-19 17z m158 0c-11 0-19-7-19-17 0-9 8-19 19-19 10 0 17 10 17 19 0 10-7 17-17 17z m89 170c0-2-2-6-4-7-2-2-5-2-7 0-17 3-31 7-46 11-13 4-24 7-36 11-5 0-7 6-7 10 2 13 2 26 4 39-44 8-102 8-144-2 0-3 0-9 2-15 0-7 2-15 2-24 0-4-2-8-7-10-12-4-23-7-36-11-15-4-29-9-44-13-2 0-2 0-3 0-2 0-4 0-6 2-2 2-4 3-4 7-2 27 0 55 10 81 0 2 1 4 3 6 42 30 89 47 140 49 6 2 11 2 17 2 53 0 107-17 153-49 2 0 4-2 4-4 7-24 11-53 9-83z m-19 13c0 21-2 44-7 61-44 26-93 41-140 41-6 0-11 0-15 0-47-4-91-17-129-43-5-21-7-42-7-61 11 2 21 6 32 10 9 4 19 5 30 9-2 4-2 10-2 15-2 8-2 17-3 25 0 4 3 7 7 9 27 6 57 10 89 10 28 0 56-2 81-8 4-2 7-5 7-11-1-13-3-25-3-38 9-4 19-6 28-9 9-4 21-6 32-10z"/>
<glyph unicode="&#50;" d="M440 219c-12 7-24 9-36 9l0 182c0 7-4 14-11 14l-344 0c-7 0-12-7-12-14l0-304c0-5 5-12 12-12l205 0c2 0 4 2 7 5 30-38 82-73 89-78 3 0 5-2 7-2 3 0 5 2 7 2 10 7 97 64 109 113 2 7 2 14 2 21 0 26-14 52-35 64z m-380-99l0 134 92 0 33-101c3-5 7-7 12-7 5 0 10 2 12 9l35 142 7-48c0-7 5-11 12-11l78 0c7 0 12 7 12 14 0 5-5 12-12 12l-69 0-14 99c0 4-4 9-9 9-7 0-12-2-14-9l-40-163-21 71c-3 4-8 7-12 7l-102 0 0 120 321 0 0-174c-10-3-17-8-24-12-21 19-56 21-80 7-23-12-38-38-38-64 0-7 0-14 3-21 2-5 2-9 7-14l-189 0z m389 19c-7-31-63-73-92-92-28 19-85 61-92 94-2 5-2 10-2 14 0 19 9 33 26 43 7 4 14 7 21 7 14 0 28-7 38-19 2-2 7-5 9-5 5 0 7 3 10 5 14 19 40 23 61 12 14-10 24-24 24-43 0-4 0-9-3-16z"/>
<glyph unicode="&#51;" d="M269 278l0 105 52-52c3-3 6-3 8-3 5 0 8 0 11 3 5 5 5 13 0 18l-74 76c-5 5-15 5-20 0l-74-76c-5-5-5-13 0-18 6-6 13-6 19 0l52 52 0-105c-65-8-115-60-115-125 0-71 57-129 128-129 71 0 128 58 128 129 0 65-50 117-115 125z m-13-227c-55 0-102 44-102 102 0 55 47 99 102 99 55 0 102-44 102-99 0-58-47-102-102-102z"/>
<glyph unicode="&#52;" d="M375 287l0 81c0 33-28 61-62 61l-114 0c-34 0-62-28-62-61l0-81c0-8 2-15 5-22-27-29-41-65-41-104 0-61 37-117 93-141 0 0 1-1 1-1l122 0c0 0 1 1 1 1 56 24 93 80 93 141 0 39-14 75-41 104 3 7 5 14 5 22z m-233 81c0 30 25 56 57 56l114 0c32 0 57-26 57-56l0-81c0-7 0-13-3-18 0 1-1 2-2 2-1 1-2 1-2 2-1 1-3 3-4 4-1 1-2 2-3 2 0 1-2 2-4 3-1 1-1 2-2 2-2 2-3 3-4 3-3 2-5 4-8 6 0 0-1 0-1 1-2 0-4 1-6 3 0 0-1 0-1 0-2 1-4 3-6 4-2 1-3 1-4 1 10 3 17 12 17 22l0 44c0 12-11 23-24 23l-114 0c-13 0-24-11-24-23l0-44c0-10 7-19 17-22-1 0-2 0-3-1-1 0-1 0-1 0-2-1-4-3-6-4-1 0-1 0-1-1-2-1-4-2-6-2 0-1-1-1-2-2-2-1-3-3-6-4-2-1-3-2-5-4-1 0-1-1-2-2-2-1-4-2-4-3-1 0-2-1-3-2-1-1-3-3-4-4 0-1-1-1-2-2-1 0-2-1-2-2-2 5-3 11-3 18z m107-52c0 0-1 0-1 0 0 0 0 0-1 0 0 0-1 0-1 0-1 0-3 0-4 0-1 0-1 0-2 0-1 0-1-1-2-1 0 0-2 0-4 0-1 0-2-1-3-1-1 0-2 0-4 0-1-1-2-1-3-1-1 0-2-1-4-1-1 0-2-1-3-1-1 0-2-1-3-1-2-1-3-1-4-1-1 0-2 0-3-1-1 0-2-1-4-1-1 0-2-1-3-1 0-1-1-1-1-1-11 0-20 9-20 19l0 44c0 10 9 18 20 18l114 0c11 0 20-8 20-18l0-44c0-10-9-19-20-19 0 0-1 1-1 1-1 0-2 1-4 1-1 1-2 1-3 1-1 1-2 1-4 1-1 0-2 1-3 1-1 0-2 1-4 1-1 0-2 1-2 1-2 0-3 1-5 1-1 0-2 0-2 1-2 0-3 0-5 0-1 1-2 1-2 1-2 0-4 0-5 1 0 0-1 0-1 0-1 0-1 0-2 0-2 0-3 0-4 0-1 0-1 0-1 0 0 0-1 0-1 0 0 0-1 0-1 0-2 0-4 0-7 0-3 0-4 0-7 0z m67-292l-120 0c-54 24-91 78-91 137 0 38 14 74 41 102 2 2 3 4 5 6 1 1 1 1 2 2 2 1 3 2 4 3 1 1 2 2 3 3 1 1 3 2 4 2 0 1 1 2 2 3 2 1 3 2 4 3 1 1 2 2 4 2 1 0 2 1 3 1 1 1 2 3 4 4 1 0 1 0 2 1 2 1 3 1 5 2 1 0 1 0 1 0 14 7 28 13 44 14 2 1 5 1 7 1 0 0 0 0 1 1 2 0 4 0 6 0 0 0 1 0 1 0 3 0 5 0 8 0 3 0 5 0 8 0 0 0 1 0 1 0 2 0 4 0 6 0 1-1 1-1 1-1 2 0 5 0 7-1 16-1 31-7 44-14 3-1 4-1 6-2 1-1 1-1 2-1 2-1 3-3 4-4 1 0 2-1 3-1 2 0 3-1 4-2 1-1 2-2 3-3 2-1 3-2 3-3 1 0 3-1 4-2 1-1 2-2 3-3 1-1 2-2 4-3 0-1 1-1 2-2 2-2 3-4 5-6 27-28 41-64 41-102 0-59-36-113-91-137z m-60 163c-31 0-56-26-56-57 0-31 25-57 56-57 31 0 56 26 56 57 0 31-25 57-56 57z m0-109c-29 0-52 24-52 52 0 29 23 53 52 53 29 0 52-24 52-53 0-28-23-52-52-52z m18 76c-7 0-14-7-14-15l0-18c0-8 7-15 14-15 9 0 15 7 15 15l0 18c0 8-6 15-15 15z m11-33c0-5-4-11-11-11-5 0-10 6-10 11l0 18c0 6 5 11 10 11 7 0 11-5 11-11z m-31 5l-6 0 0 26c0 2-2 2-3 2 0 0-1 0-1 0l-21-29c0 0 0-1 0-1 0-1 0-2 1-2l19 0 0-13c0-2 2-3 2-3 1 0 3 1 3 3l0 13 6 0c1 0 2 1 2 2 0 1-1 2-2 2z m-25 0l14 20 0-20z"/>
<glyph unicode="&#53;" d="M255 435c-115 0-210-95-210-210 0-116 95-211 210-211 116 0 211 95 211 211 0 115-95 210-211 210z m0-402c-105 0-191 86-191 192 0 105 86 191 191 191 106 0 192-86 192-191 0-106-86-192-192-192z m-64 330l-8 15-9-4 8-16c3 2 6 4 9 5z m-89-141c0 3 0 6 0 9l-22 0 0-19 22 0c0 3 0 6 0 10z m167 156l0 22-20 0 0-22c4 1 7 1 10 1 4 0 7 0 10-1z m152-85l-4 9-18-9c2-2 4-6 4-9z m-78 62c3-2 5-3 8-6l10 15-9 6z m-234-40l16-12c2 3 3 6 5 8l-15 11z m215-237l12-23 8 4-11 23c-3-1-6-3-9-4z m60 47l20-14 5 8-20 14c-1-3-4-5-5-8z m33 106c0-4 0-6 0-9 0-4 0-7 0-10l21 0 0 19z m-168-167l0-21 20 0 0 21c-3 0-6-1-10-1-3 1-6 1-10 1z m-90 5l7-6 14 22c-2 1-6 3-8 5z m-61 71l4-9 21 11c-1 3-3 5-5 9z m168 222l-13 0 0-146-79-87 1-2 78 85 102 0 0 19-89 0z"/>
<glyph unicode="&#54;" d="M501 288c-3 6-8 9-14 9l-65 0 0 46c0 5-5 13-14 13l-176 0 0 33c0 8-9 14-17 14l-117 0c-8 0-13-6-13-14l0-33-60 0c-8 0-14-8-14-13l0-280c0 0 0 0 0-3 0-3 0-3 0-6 3 0 3 0 3 0 0-2 0-2 3-2 0 0 0-3 0-3 2 0 5 0 8 0l383 0c3 0 6 0 9 3 2 0 5 2 5 5l79 221c3 2 0 8 0 10z m-403 41c8 0 14 6 14 14l0 32 90 0 0-32c0-8 8-14 13-14l180 0 0-32-291 0c-6 0-11-6-14-11l-52-145 0 188z m302-253l-356 0 68 191 356 0z m-204 0c49 0 90 41 90 93 0 49-41 89-90 89-49 0-90-40-90-89 0-52 41-93 90-93z m0 155c36 0 63-30 63-62 0-36-27-63-63-63-35 0-62 27-62 63 0 32 27 62 62 62z m-38-79c-8 0-14 9-14 17 0 5 6 13 14 13l25 0 0 22c0 8 5 14 13 14 8 0 14-6 14-14l0-22 24 0c8 0 14-8 14-13 0-8-6-17-14-17l-24 0 0-24c0-8-6-14-14-14-8 0-13 6-13 14l0 24z"/>
<glyph unicode="&#55;" d="M126 405l0-375c0-5-6-9-9-9-6 0-9 4-9 9l0 375c0 4 3 9 9 9 3 0 9-5 9-9z m202-28c8-11 14-25 14-41 0-36-29-70-66-84-7-2-15-4-20-4-30 0-52 25-52 57 0 36 27 70 65 84 23 8 44 2 59-12z m-6-41c0 11-2 21-9 28-5 6-14 9-23 9-5 0-11 0-14-1-31-11-54-40-54-67 0-28 21-44 47-35 32 10 53 39 53 66z m-20 3c-7-1-14-3-21-7l0 20c0 5-4 9-9 9-5 0-9-4-9-9l0-25c-9-2-16-6-25-7-5-2-7-6-7-11 2-4 5-7 9-7 2 0 2 0 3 0 8 2 13 5 20 7l0-20c0-5 4-9 9-9 5 0 9 4 9 9l0 25c9 2 18 6 25 7 5 2 9 6 7 11-2 6-7 9-11 7z m102 72l0-166c0-4 0-6-3-8-2-1-6-1-9-1-13 7-25 9-41 9-25 0-50-8-75-16-27-9-54-17-83-17-17 0-34 2-48 9-3 2-5 6-5 9l0 167c0 3 2 5 3 7 4 1 8 1 9 1 13-7 27-8 41-8 25 0 50 7 77 16 25 9 54 16 81 16 18 0 34-2 50-9 2-2 3-6 3-9z m-18-6c-10 4-23 6-35 6-25 0-50-7-75-16-27-9-54-16-83-16-12 0-25 1-35 5l0-148c10-4 23-6 35-6 25 0 50 7 77 16 25 9 54 16 81 16 12 0 25-1 35-5z"/>
<glyph unicode="&#56;" d="M315 143c-3 0-7 3-7 7 0 4 3 7 7 7 3 0 7-3 7-7 0-3-4-7-7-7z m-121 5c0-3 3-7 6-7 5 0 7 4 7 8 0 3-2 7-7 6-3 0-6-3-6-7z m64-28c-26 0-46-22-46-48l1-54c0-3 2-4 4-4 4 0 5 2 5 4l0 54c-1 21 16 37 36 38 21 0 38-17 38-37l1-56c0-2 2-4 4-4 4 0 5 2 5 4l0 57c-1 25-22 46-48 46z m15-65c9 0 16 7 16 8 2 1 2 4 0 5-1 3-5 3-7 0 0 0-3-4-9-3-3 0-7 1-9 3l0 8c2-1 6-2 9-2 9 0 16 7 16 7 2 2 2 6 0 7-2 2-5 2-7 0 0 0-4-5-10-5-2 0-6 1-9 5l0 8c0 2-2 4-5 4-2 0-4-2-4-4l0-8c-3-4-6-5-9-5-5 0-9 4-9 5-3 1-6 1-7-1-3-2-3-5 0-6 0-1 7-8 16-7 3 0 6 0 9 2l0-8c-3-2-6-4-8-4-6 0-10 4-10 4-3 2-6 2-7 0-3-2-3-5 0-6 0 0 7-7 17-7 2 0 5 1 9 2l0-10c-4-2-6-5-9-5-6 0-10 5-10 5-3 1-5 1-7 0-1-2-1-6 0-7 0 0 8-7 17-7 3 0 5 1 9 3l0-3c0-2 2-4 4-4 3 0 5 2 5 4l0 3c3-2 6-3 9-3 10 0 16 7 17 8 1 1 1 5 0 6-2 2-6 2-7 0 0 0-4-4-10-4-3 0-6 2-9 4l0 10c2-1 6-2 9-2z m-14-35c-3 0-5-3-5-6 0-3 3-6 5-6 4 0 6 3 6 6 0 3-2 6-6 6z m-230 387c-2 0-5-2-5-5l2-64c0-3 2-5 4-5 2 0 5 2 5 5l-2 64c0 4-2 5-4 5z m119-73c2 0 5 2 5 6l-1 65c0 2-3 4-5 4-2 0-5-2-5-4l2-66c0-3 2-5 4-5z m-133 53c-2 0-4-1-4-4l0-26c0-4 2-6 4-6 4 0 6 2 6 6l-1 26c0 3-2 4-5 4z m147-34c2 0 4 3 4 5l0 27c0 4-2 5-4 5-4 0-6-3-5-5l0-27c0-2 2-5 5-5z m-68-107c0 2-3 4-5 3-3 0-4-2-4-5 0-1 4-40 50-44 3 0 4 2 5 5 0 3-2 5-4 5-38 3-42 33-42 36z m374 176c-3 0-4-3-4-5l0-36-14 0c0 1 0 1-1 2 0 2-1 8-5 11-2 1-4 3-6 4-3 1-7 3-12 2-2 1-5 2-10 1-2 0-6 0-10-1-2 0-6 0-8-2-2-3-3-6-3-11-2 0-2-1-2-1-2-2-2-3-3-6l-7 0-1 36c0 2-2 4-5 4-2 0-4-2-4-4l1-82c0-2 2-4 5-4 3 0 4 2 4 5l0 35 7 0c1 0 1-1 1-1 0 0 0-1 0-1 0 0 9-16 21-23 1-7 2-18 1-21-3-13-5-31 1-44-7-4-19-8-25-14-6-6-19-18-27-30-23 10-58 19-71 22 0 14 2 23 4 25 6 11 8 19 5 26 0 1-1 4-2 5 3 39-30 47-30 47 0 0-7 2-13 2-6 0-14-2-14-2-1 0-33-9-28-48-1-2-2-4-2-5-3-7 0-15 6-26 0-2 4-10 4-25-12-2-46-11-66-24-8 10-23 24-30 30-5 4-17 10-23 12 5 14 2 32-2 44-1 4 0 14 2 22 10 7 19 23 19 23 0 1 1 1 1 2 0 0 0 0 0 1l7 0 1-36c0-3 2-5 5-5 2 0 4 2 4 5l-1 81c0 3-2 5-5 5-2 0-4-2-4-6l0-35-7 0c-1 2-2 5-3 6 0 1-2 1-2 2 0 5-1 8-4 10-2 1-5 1-7 1-6 2-9 2-11 2-5 1-8 0-10-2-5 0-8-1-11-3-2 0-5-1-6-3-5-4-5-9-5-12-1-1-1-1-1-2l-14 0-1 35c0 4-1 6-4 6-3-1-5-2-5-6l1-80c0-3 2-5 5-5 3 0 5 2 4 5l0 36 12 0c-2-6-2-10 0-11 0 0 0 0 0-2 1-3 4-15 3-19-7-13-16-52-16-54-4-30 9-49 18-62l3-2c11-16 29-26 35-29 7-29 29-38 45-40-1-10 4-30 40-58 0-10-2-52 8-76 1-1 2-2 4-2 0 0 2 0 2 0 3 1 4 3 3 5-10 26-7 74-7 75 0 1-1 4-2 5-39 29-39 45-38 51 0 0 1 0 1 1 8-15 25-25 45-25 27 1 49 20 49 43l-2 21c0 2-2 4-4 4-2 0-5-2-5-4l0-21c0-18-17-33-38-33-22-1-40 14-40 32 0 3-2 4-5 4-2 0-4-2-4-4 0-3 0-7 1-9-12-1-39 6-44 35 0 1-1 2-2 2 0 1-23 12-36 29l-1 2c-8 11-20 28-17 54 0 0 9 39 15 52 3 6 1 17-2 26 0 4 0 12 2 18 1 0 1 1 1 2 0 1 0 5 2 6 0 0 1 1 3 1 1 0 3 0 3 2 1 0 2 1 6 1 1 0 2 0 3 0 0 0 1 2 5 0 1 0 2 0 3 2 0 0 2 0 7-2 1-1 2 0 3 0 0 0 1-1 0-5 0-1 0-3 1-4 2-1 3-1 4-1 0 0 1-2 0-8-2-4-10-16-17-20-2-1-2-3-2-4-2-3-3-21-2-27 4-12 6-31-1-43 0-1 0-2 0-3 1-2 3-3 4-4 5-1 20-7 26-11 4-5 22-20 28-30 1-1 1-2 1-2 1-1 3-2 5-2 0 0 1 0 2 1 22 16 70 25 70 25 3 1 5 2 5 6-1 20-5 31-5 31 0 1-1 1-1 1-6 12-6 16-5 19 0 0 0 1 0 1 2 0 3 2 3 4-6 34 19 41 19 41 3 1 8 2 13 1 6 1 11 0 11 0 1 0 26-5 22-41 0-2 1-4 3-4 0 0 0-1 1-2 0-2 0-6-6-17 0 0 0-2 0-2 0 0-4-11-4-32 0-3 1-4 4-5 1 0 49-11 74-23 2 0 3 0 5 1 1 0 2 0 2 2 7 10 24 26 29 30 5 6 20 12 26 13 1 1 2 2 3 3 0 1 0 2-1 5-7 11-4 29-1 42 1 6-1 23-2 27 0 1-1 2-3 3-8 5-17 17-18 20-1 6 0 8-1 8 2 0 3 1 5 2 0 1 1 2 1 3-1 5 0 6 0 6 1-1 2-1 3 0 4 1 7 1 7 1 1-1 2-1 2 0 4 0 6 0 6 0 1-1 2-1 3-1 4 0 5-1 5-1 1-1 2-2 4-2 2 0 3 0 3 0 2-3 2-6 2-7 0 0 0-1 1-3 2-4 3-12 3-17-3-9-5-19-2-26 7-12 16-51 16-51 5-26-7-43-15-55l-2-2c-11-17-33-29-33-29-1 0-2-1-2-4-6-28-31-36-44-36-2 0-3 0-3-1 1 3 1 8 1 11 0 3-2 5-4 5-2 0-5-2-5-5 0-18-17-34-38-34-22 0-40 15-40 33l-1 20c0 2-1 4-5 4-2 0-4-2-4-4l0-20c1-24 23-43 50-42 19 0 37 10 44 26 0 0 0-1 0-1 2-4 5-20-36-53-1-1-1-2-1-5 0 0 4-49-5-74-1-2 0-5 2-6 1 0 1 0 3 0 2 0 3 1 4 3 9 24 6 66 5 76 35 29 41 48 38 58 16 2 41 13 47 42 7 3 25 15 35 31l1 2c9 12 23 32 17 62 0 2-9 40-17 54-2 3 2 16 4 19 0 1 0 1 0 1 0 1 0 6-2 12l12 0 1-36c0-3 2-5 4-5 3 1 5 2 5 5l-1 81c0 2-2 5-5 5z m14-8c-2 0-5-3-5-5l2-65c0-3 2-4 4-4 2 0 5 2 5 4l-2 65c0 2-2 5-4 5z m-117-76c2 0 5 2 5 4l-2 65c0 3-2 5-4 5-2 0-5-2-5-5l1-65c0-2 3-4 5-4z m131 57c-3 0-5-2-5-5l1-26c0-4 2-6 5-6 2 1 4 2 4 6l0 26c0 3-2 5-5 5z m-146-38c4 0 6 2 5 4l0 28c0 2-2 4-5 4-2 0-4-2-4-6l0-26c0-3 2-4 4-4z m32-152c45 3 49 44 49 44 0 2-1 5-5 6-2 0-4-3-4-5 0-1-4-33-41-36-2 0-5-2-4-6 0-2 3-3 5-3z"/>
<glyph unicode="&#57;" d="M297 148c-8 0-12 4-12 12 0 6 4 10 12 10 6 0 10-4 10-10 0-8-4-12-10-12z m-41 34c0 6-4 12-10 12-8 0-12-6-12-12 0-6 4-12 12-12 6 0 10 6 10 12z m57-40c-8 0-12-7-12-15 0-6 4-12 12-12 8 0 12 6 12 12 0 8-6 15-12 15z m-57-21c-10 0-18-8-18-20 0-10 8-19 18-19 12 0 20 9 20 19 0 12-8 20-20 20z m-39 47c0 6-6 12-12 12-8 0-14-6-14-12 0-8 6-14 14-14 6 0 12 6 12 14z m-4-47c-6 0-12-6-12-12 0-8 6-12 12-12 8 0 12 4 12 12 0 6-4 12-12 12z m165 31c0-67-55-122-122-122-67 0-122 55-122 122 0 51 30 93 77 112l0 104-8 0c-6 0-12 4-12 10l0 38c0 6 6 13 12 13l106 0c4 0 10-6 10-13l0-38c0-6-6-10-10-10l-8 0 0-104c47-19 77-61 77-112z m-22 0c0 42-27 81-69 95-5 2-7 7-7 11l0 120c0 6 5 10 11 10l6 0 0 18-84 0 0-18 8 0c6 0 11-4 11-10l0-120c0-4-2-9-7-11-42-14-69-53-69-95 0-55 45-100 100-100 55 0 100 45 100 100z"/>
<glyph unicode="&#33;" d="M445 425l-378 0c-7 0-13-5-13-13l0-377c0-6 6-13 13-13l378 0c7 0 13 7 13 13l0 377c0 8-6 13-13 13z m-14-377l-350 0 0 170 102 0 34-110c2-5 8-8 13-8 8 0 13 3 13 8l39 157 8-52c0-8 5-11 13-11l87 0c5 0 13 6 13 13 0 8-8 14-13 14l-76 0-16 107c0 8-5 10-11 10-7 3-13-2-15-7l-42-179-26 76c0 6-6 8-11 8l-112 0 0 155 350 0z"/>
<glyph unicode="&#34;" d="M241 325c0-23-18-41-40-41-22 0-41 18-41 41 0 22 19 39 41 39 22 0 40-17 40-39z m73-150c0-14-11-26-26-26-15 0-26 12-26 26 0 14 11 26 26 26 15 0 26-12 26-26z m115 85c32 158-96 230-239 208-143-23-137-109-146-151-17-103 90-219 90-219l-7-120 174 0 13 55c0 0 8-12 52-16 45-4 40 51 40 51 0 0 30 13 30 23 0 10-18 23-18 23 0 0 19-4 26 4 7 8-9 37-9 37 0 0 24 0 38 16 14 15-44 60-44 89z m-248-22c0 0-1 10-1 16-4 1-8 3-12 5-5-5-15-13-15-13 0 0-1-1-2-1-1-1-15 1-15 1l-26 31 0 18c0 0 9 8 14 13-1 4-1 8-2 12-6 4-19 10-19 10l-5 14 0 3 18 36 17 5c0 0 11-5 16-8 4 3 7 6 11 8 0 6-1 20-1 20l13 13 39 4 13-14c0 0 1-10 2-16 5-1 10-2 15-4 3 3 12 10 12 10l19 0 26-30 0-18c0 0-11-9-16-14 1-4 1-7 1-11 7-4 20-12 20-12l5-17-20-35-17-4c0 0-11 6-16 9-3-2-7-5-10-6 1-8 2-22 2-22l-12-12-40-4z m163-102l-11-3c0 0-7 4-10 6-2-1-4-3-6-4 0-4 1-14 1-14l-9-7-25-3-8 8c0 0-1 7-1 11-3 0-5 1-8 3-3-3-9-8-9-8 0 0-1-1-2-1 0-1-10 1-10 1l-16 20 0 11c0 0 6 6 10 8-1 3-1 6-2 9-4 2-13 5-13 5l-3 10 0 1 11 23 11 3c0 0 7-3 11-5 2 2 5 4 7 5 0 5-1 14-1 14l9 8 25 2 8-8c0 0 0-7 1-10 3-1 6-3 9-4 3 2 9 7 9 7l12 0 16-19 0-12c0 0-7-6-10-9 0-2 1-5 1-7 4-2 13-7 13-7l3-12z"/>
<glyph unicode="&#35;" d="M397 378c-40 41-91 48-131 48-15 0-72-5-87-31-2-8 0-15 5-17 7-3 14 0 17 5 5 9 38 19 65 19 52-3 88-15 112-41 24-24 34-55 27-81-8-34-36-60-80-75-7-2-16-5-28-9-19-5-41-10-63-17l0 17c72 7 127 67 127 141 0 7-4 12-12 12l-256 0c-7 0-12-5-12-12 0-74 55-134 127-141l0-27c-38-16-72-38-69-69 2-12 7-29 38-36 7-3 14-3 24-3 2 0 5 0 7 0l0-14-55 0c-7 0-14-5-14-12 0-7 7-12 14-12l137 0c7 0 12 5 12 12 0 7-5 12-12 12l-56 0 0 17c36 5 75 21 87 43 4 5 2 12-5 17-5 2-12 0-17-5-7-12-36-24-65-31l0 65c24 9 51 16 70 21 12 2 21 5 29 7 50 17 86 51 96 91 9 36-3 75-32 106z m-273-103l89 0c7 0 12 5 12 12 0 7-5 12-12 12l-101 0c-5 7-7 16-7 26l232 0c-7-60-57-105-117-105-41 0-77 21-96 55z m84-190c-10 0-19 0-26 3-17 2-17 12-17 14-2 15 17 29 43 41z"/>
<glyph unicode="&#36;" d="M503 242c0 1-1 2-2 2-14 0-27 0-40 0 0 19 0 36 0 54 0 8 0 14 0 21 0 11-11 17-20 20-14 4-31 3-42-5-1-2-2-3-4-4-7-6-6-14-6-22 0-13 0-25 0-38 0-8 0-18 0-26-3 0-5 0-8 0 0 40 0 80 0 122 0 17-15 27-31 31-14 3-34-1-45-13-5-4-8-11-8-17 0-16 0-32 0-48 0-25 0-49 0-75-24 0-48 0-73 0 0 28 0 56 0 84 0 10 0 20 0 30 0 5 1 10 0 15-2 4-4 7-7 10-13 18-46 20-64 8-8-6-13-15-13-24 0-1 0-3 0-5 0-39 0-78 0-118-3 0-5 0-8 0 0 0 0 0 0 2 0 24 0 48 0 72 0 5-3 10-7 13-9 12-33 12-45 8-9-4-17-11-17-20 0-3 0-5 0-8 0-23 0-44 0-67-10 0-19 0-28 0-7 0-13 0-20 0-1 0-3-1-3-2 0-10 0-19 0-28 0-3 2-3 3-3 16 0 32 0 48 0 0-22 0-45 0-68 0-1 0-2 0-4 0-13 13-20 26-22 12-2 28 1 36 10 2 2 3 3 4 4 4 6 3 15 3 22 0 18 0 38 0 58 3 0 5 0 8 0 0-5 0-10 0-14 0-43 0-84 0-127 1-29 39-37 61-28 6 3 10 5 14 9 6 6 9 14 9 22 0 20 0 40 0 60 0 26 0 52 0 78 25 0 49 0 73 0 0-29 0-58 0-88 0-17 0-34 0-52 0-8 3-14 8-18 20-24 75-19 76 17 0 47 0 93 0 138 0 2 0 2 0 3 3 0 5 0 8 0 0-14 0-28 0-41 0-9 0-20 0-29 0-6 2-10 5-12 8-11 27-14 39-12 13 1 28 8 28 22 0 24 0 48 0 72 6 0 13 0 20 0 6 0 13 0 20 0 1 0 1 0 1 0 0 0 1 0 1 0 0 0 0 1 0 1 0 0 0 0 0 2 0 9 0 18 0 28z m-96-111c-5 2-10 4-10 10 0 9 0 18 0 26 0 33 0 67 0 100 0 13 0 27 0 40 0 4 0 7 0 11 0 5 5 8 10 9 7 3 15 3 22 0 5 0 13-3 13-8 0-1 0-4 0-5 0-11 0-23 0-34 0-46 0-94 0-141 0-5-8-8-12-9-7-1-15-1-23 1z m-102-50c0 25 0 50 0 74 0 63 0 127 0 189 0 7 0 14 0 20 0 17 21 23 36 21 9-1 21-8 21-18 0-1 0-3 0-4 0-8 0-16 0-24 0-64 0-128 0-192 0-25 0-50 0-77 0-13-16-19-26-19-12-1-27 4-31 16-1 4 0 10 0 14z m-102-27c-15-5-43-3-44 16 0 47 0 93 0 138 0 52 0 104 0 158 0 18 24 22 38 18 10-1 19-8 19-17 0-1 0-3 0-5 0-20 0-42 0-63 0-65 0-130 0-194 0-11 0-23 0-34 0-8-7-14-13-17z m-91 76c-7-1-13-1-20 0-4 1-11 4-11 9 0 54 0 107 0 159 0 8 0 14 0 21 0 3 4 5 7 7 8 4 16 4 24 1 5-1 12-4 12-9 0-26 0-50 0-75 0-28 0-56 0-84 0-6 0-13 0-20 0-5-8-8-12-9z"/>
<glyph unicode="&#37;" d="M441 198c-10 0-17-9-17-19l0-26-336 0 0 123c0 10-7 16-17 16-9 0-16-6-16-16l0-239c0-10 7-17 16-17 10 0 17 7 17 17l0 32 336 0 0-32c0-10 7-17 17-17 9 0 16 7 16 17l0 142c0 10-7 19-16 19z m-353-93l0 16 336 0 0-16z m26 84c0 9 6 16 16 16l77 0c7 0 17-7 17-16 0-10-10-16-17-16l-77 0c-10 0-16 6-16 16z m216 116l-84 0c0 13 4 23 10 29 3 10 16 20 29 30 10 3 13 9 16 13 4 3 4 9 4 12 0 7 0 10-4 13-3 4-6 7-13 7-6 0-9-3-13-7-3-3-3-9-3-16l-26 0c0 13 4 23 13 29 7 10 16 13 29 13 13 0 23-3 30-9 6-10 12-17 12-30 0-9-3-16-6-22-6-7-13-13-26-20-10-6-19-13-23-19l55 0z m59 0l26 0 0 29 13 0 0 20-13 0 0 74-30 0-45-74 0-20 49 0z m-29 49l29 48 0-48z m-68-130l0 30-26 0 0-30-13 0 0 62 13 0 0-23 26 0 0 23 13 0 0-62z m77 46c0 3-3 9-6 13-3 3-7 3-13 3l-32 0 0-62 12 0 0 26 13 0c4 0 7-3 10-3 0 0 0-3 0-6l0-7c0 0 0-3 3-6 0-4 0-4 0-4l13 0c0 4 0 4 0 4-3 0-3 3-3 3l0 13c0 3 0 6-3 10-3 0-3 0-3 0 0 0 3 3 3 3 0 0 6 6 6 13z m-16-10c0 0-3 0-6 0l-17 0 0 16 17 0c3 0 6 0 6-3 3 0 3-3 3-7 0-3 0-3-3-6z m42 16c-3-3-3-3-3-6 0-4 0-4 3-4 0-3 3-3 10-6 10 0 16-3 19-6 4-4 4-7 4-13 0-7 0-10-7-13-3-4-10-7-16-7-10 0-16 3-20 7-6 3-6 9-6 16l10 0c0-3 3-7 6-10 0 0 3 0 10 0 3 0 6 0 10 0 0 3 3 3 3 7 0 3-3 3-3 6-4 0-7 0-10 3-13 0-19 4-23 7-3 3-3 6-3 13 0 6 3 9 7 13 3 3 9 6 16 6 9 0 13-3 19-6 3-4 7-10 7-17l-13 0c0 4 0 7-4 10-3 0-6 0-9 0-4 0-7 0-7 0z"/>
<glyph unicode="&#38;" d="M142 101l-67 0c0 9 3 17 7 23 4 7 12 13 25 21 6 4 10 8 12 12 2 3 4 7 4 11 0 4-2 6-4 10-2 2-6 4-10 4-5 0-9-2-11-6-2-2-4-6-2-12l-18 0c-3 10 2 18 8 25 4 6 12 8 23 8 10 0 18-2 22-8 7-7 11-13 11-21 0-8-2-15-6-19-2-4-9-10-19-16-8-7-15-11-19-15l44 0 0-17z m66 96l0-60 11 0 0-15-11 0 0-21-18 0 0 21-38 0 0 17 36 58z m-18-19l-23-39-2-2 25 0z m-79-93l0-19-19 0 0 19-10 0 0-50 10 0 0 23 19 0 0-23 10 0 0 50z m62-48l0-2-10 0c0 0 0 2 0 4-2 0-2 2-2 4l0 4c0 5 0 5-3 7 0 0-2 0-6 0l-10 0 0-19-11 0 0 50 25 0c7 0 11-2 13-4 2-2 4-7 4-11 0-4-2-8-4-10-2 0-2 0-4 0 2-2 2-2 2-2 4-2 4-4 4-8l0-9c0-2 2-2 2-4z m-10 33c0 2 0 4-2 4 0 3-3 3-7 3l-12 0 0-15 12 0c2 0 4 2 7 2 2 2 2 4 2 6z m39-6c-4 2-8 2-8 4-2 0-4 2-4 2 0 2 2 4 4 7 0 0 2 2 6 2 2 0 4-2 6-2 2-3 4-5 4-7l11 0c-2 4-4 9-7 13-4 2-8 4-14 4-6 0-10-2-15-4-2-4-4-9-4-13 0-4 0-8 4-10 3-2 7-2 15-4 4-2 8-2 8-4 2 0 2-2 2-5 0-2 0-2-2-4-2 0-4-2-8-2-2 0-6 2-6 2-2 2-4 4-4 7l-11 0c0-5 2-9 6-13 5-2 9-4 15-4 6 0 12 2 14 4 5 4 7 6 7 13 0 4 0 8-4 10-3 2-7 2-15 4z m235 172c0-6-5-10-11-10l-153 0 0-137c0-27 20-48 47-48 25 0 48 21 48 48 0 6 4 10 10 10 7 0 11-4 11-10 0-39-31-69-69-69-39 0-70 30-70 69l0 137-162 0c-6 0-10 4-10 10 0 94 70 158 172 160l0 25c0 6 6 10 12 10 4 0 11-4 11-10l0-25c95-6 161-68 164-156 0-2 0-2 0-4z m-23 11c-4 77-69 128-158 128-87 0-152-51-158-128z m-123 72l-23 0 0 25c0 4-6 11-12 11-4 0-10-7-10-11l0-25-23 0c-6 0-11-4-11-10 0-6 5-10 11-10l23 0 0-23c0-6 6-11 10-11 6 0 12 5 12 11l0 23 23 0c4 0 11 4 11 10 0 6-7 10-11 10z"/>
<glyph unicode="&#39;" d="M151 108c12 0 24 4 34 12 11-10 26-16 43-16 18 0 36 8 50 21 26 27 26 72-2 100-12 11-30 20-48 20-9 0-17-2-24-5l0 65c0 30-24 54-53 54-30 0-55-24-55-54l0-143c0-30 25-54 55-54z m-38 54l0 64 70 0c-2 0-3-1-5-3-25-25-27-63-5-91-7-5-15-7-22-7-21 0-38 17-38 37z m153-25c-18-19-48-20-68-5l73 73c15-20 13-50-5-68z m-8 80l-73-74c-15 20-14 50 5 69 10 10 23 14 38 14 11 0 21-3 30-9z m-107 124c20 0 37-16 37-36l0-60-75 0 0 60c0 20 17 36 38 36z m265-141c0-3-4-8-9-8l-60 0-48-110c-1-3-5-5-8-5l-181 0c-5 0-10 3-10 8 0 5 5 9 10 9l176 0 48 109c2 4 5 5 8 5l65 0c5 0 9-3 9-8z m-243-155c0-13-10-25-25-25-13 0-23 12-23 25 0 14 10 25 23 25 15 0 25-11 25-25z m86 0c0-13-10-25-23-25-15 0-25 12-25 25 0 14 10 25 25 25 13 0 23-11 23-25z m50 280l-68 0c0 10 2 16 7 23 5 6 13 15 26 23 5 5 10 8 12 12 3 3 3 6 3 11 0 4-1 9-3 10-3 4-7 5-10 5-5 0-8-1-12-5-1-3-3-8-3-15l-18 0c-2 12 1 20 8 27 5 7 15 10 25 10 10 0 18-3 23-10 7-5 10-13 10-22 0-8-1-15-5-20-3-5-10-10-20-16-10-5-15-10-18-15l43 0z m50 0l20 0 0 23 12 0 0 15-12 0 0 63-23 0-37-62 0-16 40 0z m-25 38l0 1 25 40 0-41z m-56-107l0 24-20 0 0-24-10 0 0 52 10 0 0-18 20 0 0 18 11 0 0-52z m64 39c0 3-1 8-5 10-3 3-6 3-11 3l-27 0 0-52 12 0 0 22 10 0c3 0 5-2 6-2 2-1 2-3 2-5l0-5c0-1 2-3 2-6 0-2 0-2 0-4l11 0 0 2c0 0-1 2-1 2 0 1 0 1 0 3l0 8c0 5-2 9-5 10 0 0-2 0-2 0 2 2 2 2 3 2 4 3 5 7 5 12z m-13-7c-2-2-3-2-7-2l-11 0 0 14 13 0c2 0 3 0 5-2 2-2 2-3 2-5 0-2 0-3-2-5z m33 12c-1-2-1-4-1-5 0-2 0-4 1-4 2 0 5-1 10-3 5-2 14-3 15-7 4-1 5-5 5-10 0-5-3-8-6-11-4-4-9-4-15-4-7 0-12 0-15 4-5 3-7 8-7 13l10 0c0-3 2-5 3-7 2-1 5-1 9-1 3 0 5 0 8 1 2 2 2 2 2 5 0 2 0 4-2 4-2 1-3 1-8 3-9 2-14 3-17 7-3 1-5 5-5 8 0 7 3 10 7 13 3 2 8 4 15 4 5 0 10-2 13-4 3-3 7-8 7-13l-12 0c0 3 0 5-3 7-2 1-4 1-7 1-3 0-5 0-7-1z"/>
<glyph unicode="&#40;" d="M462 349l-204 0c-15 43-57 75-105 75-62 0-111-50-111-110 0-51 35-94 83-106l0-181c0-5 3-9 8-9l329 0c5 0 8 4 8 9l0 314c0 5-3 8-8 8z m-404-35c0 52 43 93 95 93 51 0 93-41 93-93 0-51-42-94-93-94-52 0-95 43-95 94z m396-279l-103 0 0 158c0 5-4 10-9 10l-91 0c-3 0-8-5-8-10l0-158-102 0 0 170c4-2 7-2 12-2 2 0 3 0 7 0l0-17 26 0 0 22c45 15 77 56 77 106 0 7 0 12-2 19l193 0z m-190 236l25 0 0 25c0 5 4 8 9 8 5 0 8-3 8-8l0-25 23 0c5 0 8-3 8-8 0-5-3-9-8-9l-23 0 0-23c0-5-3-8-8-8-5 0-9 3-9 8l0 23-25 0c-5 0-8 4-8 9 0 5 3 8 8 8z m132-221l-29 0 0 28 29 0z m43 0l-28 0 0 28 28 0z m-43 43l-29 0 0 28 29 0z m43 0l-28 0 0 28 28 0z m-43 50l-29 0 0 28 29 0z m43 0l-28 0 0 28 28 0z m-43 43l-29 0 0 27 29 0z m43 0l-28 0 0 27 28 0z m-43 53l-29 0 0 27 29 0z m43 0l-28 0 0 27 28 0z m-43 42l-29 0 0 28 29 0z m43 0l-28 0 0 28 28 0z m-279-203l26 0 0-28-26 0z m43 0l26 0 0-28-26 0z m-43 43l26 0 0-28-26 0z m43 0l26 0 0-28-26 0z m-43 50l26 0 0-28-26 0z m43 0l26 0 0-28-26 0z m0 42l26 0 0-27-26 0z m-55 90l-50 0c0 6 2 11 5 16 3 5 10 10 18 17 5 3 9 6 10 8 2 3 2 5 2 8 0 4 0 5-2 9-3 1-5 1-8 1-3 0-5 0-7-3-3-2-3-5-3-10l-13 0c-2 8 1 15 5 18 5 5 11 9 18 9 7 0 13-4 18-7 4-5 7-10 7-17 0-5-2-9-5-13-2-3-7-8-13-13-7-3-12-7-14-10l32 0z m35 0l15 0 0 16 8 0 0 10-8 0 0 47-17 0-26-45 0-12 28 0z m-18 26l1 2 17 30 0-32z m-35-38l3 0 0-37-8 0 0 17-15 0 0-17-7 0 0 37 7 0 0-13 15 0 0 13z m31-23c0-2 2-2 2-4l0-3c0-2 0-3 0-5 0-2 0-2 0-2l8 0c0 0 0 2 0 2-1 0-1 2-1 2l0 6c0 4 0 5-4 7 0 2 0 2 2 2 2 1 3 5 3 8 0 3-1 5-3 7-2 1-5 3-8 3l-19 0 0-37 7 0 0 14 8 0c2 0 4 0 5 0z m-13 16l10 0c2 0 3 0 3-1 2 0 2-2 2-4 0-1 0-3-2-3 0-2-1-2-3-2l-10 0z m38 0c-1-1-1-1-1-3 0-2 0-2 1-3 0 0 4-2 7-2 5-2 10-3 11-5 2-2 2-3 2-7 0-3 0-6-3-8-4-2-7-3-12-3-5 0-8 1-10 3-3 2-5 5-5 10l9 0c0-3 0-5 1-5 2-2 4-2 5-2 4 0 5 0 7 0 2 2 2 4 2 4 0 1 0 3-2 3-2 2-3 2-7 3-5 0-10 2-11 4-2 1-4 5-4 6 0 5 2 7 5 10 2 2 5 4 10 4 5 0 9-2 10-4 3-3 5-6 5-10l-8 0c0 2 0 4-2 5-1 0-3 2-5 2-3 0-5-2-5-2z"/>
<glyph unicode="&#41;" d="M348 114c0-4-4-10-11-10l-10 0 0-11c0-7-7-11-11-11-6 0-13 4-13 11l0 11-11 0c-6 0-10 6-10 10 0 7 4 13 10 13l11 0 0 11c0 4 7 11 13 11 4 0 11-7 11-11l0-11 10 0c7 0 11-6 11-13z m157 107l0-169c0-6-5-11-11-11l-39 0 0-34-58 0 0 34-165 0 0-34-55 0 0 34-41 0c-6 0-11 5-11 11l0 112c-66 12-118 70-118 141 0 79 65 143 142 143 53 0 101-32 126-75 13 3 26 3 41 3 116 0 189-58 189-155z m-213 84c0-49-25-94-66-120l214 0 0 36c0 73-68 88-124 88-9 0-17 0-24 0 0-2 0-2 0-4z m-143-120c66 0 122 54 122 120 0 4-2 6-2 11 0 0 0 0 0 2 0 0 0 0 0 2-7 60-58 105-120 105-67 0-120-54-120-120 0-66 53-120 120-120z m334 36c0 84-62 133-167 133-11 0-21-2-32-2 2-6 4-15 6-21 9 0 15 2 26 2 92 0 146-41 146-112l0-47c0-6-5-10-11-10l-272 0c-2 0-2 0-4 0-9 0-18-3-26-3 0 0-2 0-2 0l0-98 336 0z m-268-83c-13 0-23-11-23-24 0-10 10-21 23-21 13 0 24 11 24 21 0 13-11 24-24 24z m200 0c-13 0-22-11-22-24 0-10 9-21 22-21 12 0 23 11 23 21 0 13-11 24-23 24z m-273 169l-40 0c4 4 8 9 17 15 11 4 15 11 19 15 4 4 4 11 4 17 0 9-2 15-8 22-7 6-13 8-22 8-10 0-19-4-23-8-7-7-9-15-9-26l20 0c-3 6 0 11 2 13 2 4 6 6 10 6 3 0 7-2 9-4 2-2 4-7 4-11 0-4-2-6-4-11-2-2-6-6-11-8-13-9-19-17-23-24-5-4-7-12-7-21l62 0z m48 4l-37 0 0 15 34 58 20 0 0-58 10 0 0-15-10 0 0-21-17 0z m0 15l0 39-24-39z m-75-51l0-17-20 0 0 17-10 0 0-47 10 0 0 21 20 0 0-21 8 0 0 47z m38-28l-8 0 0-19-11 0 0 47 23 0c7 0 9 0 13-4 2-2 5-5 5-9 0-4-3-8-7-11 0 0 0 0-2 0 0-2 2-2 2-2 2-2 4-4 4-8l0-7c0-2 0-4 0-4 0 0 0 0 3-2l-11 0c0 0-2 2-2 2 0 2 0 4 0 6l0 5c0 2 0 4-2 4 0 0-3 2-7 2z m-8 7l10 0c2 0 5 2 7 2 2 2 2 2 2 4 0 2 0 4-2 6-2 0-2 0-7 0l-10 0z m53 15c2 0 7 0 7-3 2-2 4-4 4-6l8 0c0 6-2 11-4 13-4 2-8 4-13 4-6 0-10-2-15-4-2-2-4-7-4-11 0-4 0-8 4-11 2-2 7-2 15-4 5-2 7-2 9-2 0-2 2-2 2-4 0-2-2-5-4-5-2-2-5-2-7-2-4 0-6 0-8 2 0 3-2 3-2 7l-9 0c0-7 0-11 4-13 5-2 9-4 15-4 7 0 11 2 13 4 4 2 7 6 7 11 0 4-3 8-5 10-2 3-6 3-13 5-6 2-8 2-10 2 0 2-2 2-2 4 0 2 2 4 2 4 0 0 4 3 6 3z"/>
<glyph unicode="&#42;" d="M455 261c-13 34-30 64-51 92-2 2-7 5-9 5-4 0-6-3-8-5-13-17-26-32-37-47-10-13-19-26-30-38-4-5-4-9 0-13 7-9 13-17 22-24 4-6 8-11 13-15-39-43-99-86-153-109-8 15-15 30-23 45-4 4-9 6-15 4-15-4-30-11-45-15-17-6-37-13-56-19-2-2-4-4-6-7 0-4 0-6 2-10 19-32 43-60 68-77 3-3 5-3 7-3 47 0 133 11 212 75 49 41 86 93 109 155 0 2 0 4 0 6z m-124-143c-71-58-150-69-193-71-19 15-38 34-53 58 12 6 27 10 42 15 11 4 24 8 37 13 8-15 17-30 26-45 2-5 8-7 12-5 63 26 133 75 174 125 4 4 4 10 2 15-6 6-15 15-21 23-5 4-9 11-13 15 6 11 15 22 23 32 9 11 18 24 28 35 15-22 28-45 39-71-22-56-56-103-103-139z m-150 190l-88 0 0 17 15 15c28 24 41 37 41 52 0 11-7 19-19 19-11 0-22-6-28-11l-9 22c11 6 26 11 41 11 28 0 45-15 45-39 0-19-15-36-34-51l-11-11 47 0z m69 0l27 0 0 30 13 0 0 22-13 0 0 70-36 0-47-75 0-17 56 0z m-28 52l17 28c2 6 6 15 11 21 0-6 0-15 0-21l0-28z m-82-146l0 30-28 0 0-30-17 0 0 75 17 0 0-30 28 0 0 30 17 0 0-75z m86 54c0 6-2 12-6 17-5 4-13 4-24 4-11 0-17 0-24 0l0-75 18 0 0 30 4 0c8-2 11-4 13-13 2-11 4-15 6-17l17 0c-2 2-4 13-6 21-2 7-4 11-11 13 7 2 13 11 13 20z m-30-13l-6 0 0 21c2 0 4 0 8 0 7 0 13-2 13-11 0-6-6-10-15-10z m75-22c0 7-4 9-13 11-13 6-21 13-21 24 0 12 10 23 30 23 8 0 15-2 19-4l-4-15c-2 2-9 4-15 4-9 0-13-4-13-6 0-7 4-9 15-11 13-6 19-13 19-24 0-12-8-23-30-23-8 0-17 2-21 4l2 15c6-2 13-4 19-4 9 0 13 2 13 6z"/>
<glyph unicode="&#43;" d="M110 426l0-403 293 0 0 403z m276-386l-258 0 0 370 258 0z m-218 179l186 0 0-17-186 0z m0-40l186 0 0-18-186 0z m0-41l186 0 0-17-186 0z m0-37l186 0 0-17-186 0z m102 197l3-9 21 0-24 64-19 0-24-64 20 0 3 9z m-9 33l5-20-12 0z m52 3l0-16-16 0 0-14 16 0 0-15 13 0 0 15 16 0 0 14-16 0 0 16z m-31-96c44 0 80 29 80 73 0 44-36 80-80 80-13 0-34-6-37-9-3-3-3-9 4-6 5 2 21 8 33 8 40 0 73-33 73-73 0-40-33-65-73-65-40 0-72 25-72 65 0 13 6 33 8 35 3 3-3 9-5 5-3-5-11-25-11-40 0-44 36-73 80-73z"/>
<glyph unicode="&#44;" d="M257-20c-133 0-241 109-241 242 0 133 108 241 241 241 133 0 242-108 242-241 0-133-109-242-242-242z m0 467c-124 0-225-101-225-225 0-125 101-225 225-225 125 0 225 100 225 225 0 124-100 225-225 225z m102-233l-203 0c-5 0-9 3-9 8 0 4 4 8 9 8l203 0c5 0 8-4 8-8 0-5-3-8-8-8z m-102-102c-4 0-8 3-8 8l0 203c0 5 4 9 8 9 5 0 8-4 8-9l0-203c0-5-3-8-8-8z"/>
<glyph unicode="&#45;" d="M415 201l-137 0 0-136-44 0 0 136-137 0 0 45 137 0 0 136 44 0 0-136 137 0z"/>
<glyph unicode="&#46;" d="M256 438c-87 0-172-12-172-162 0-143 77-257 172-257 95 0 172 114 172 257 0 150-85 162-172 162z m0-398c-83 0-149 106-149 236 0 131 66 141 149 141 83 0 149-10 149-141 0-130-66-236-149-236z m0 340c-60 0-125-8-125-118 0-33 7-56 19-71 15-14 33-16 50-16 8 0 17 0 27 2 19 0 39 0 58 0 10 0 19-2 27-2 48 0 69 25 69 87 0 110-65 118-125 118z m56-185c-8 0-17 2-25 2-10 0-21 3-31 3-10 0-21-3-31-3-8 0-17-2-25-2-17 0-27 5-33 11-11 10-15 29-15 56 0 91 46 97 104 97 58 0 104-6 104-97 0-60-21-67-48-67z m-56-43c-27 0-48-21-48-48 0-27 21-50 48-50 27 0 48 23 48 50 0 27-21 48-48 48z m0-75c-15 0-27 13-27 27 0 15 12 27 27 27 15 0 27-12 27-27 0-14-12-27-27-27z"/>
<glyph unicode="&#47;" d="M399 349l-80 0 0 22c0 20-8 50-63 50-55 0-63-30-63-50l0-22-80 0c-58 0-106-48-106-106l0-156c0-7 5-12 13-12l50 0c8-25 28-45 55-45 28 0 51 20 56 45l150 0c5-25 28-45 56-45 27 0 47 20 55 45l50 0c8 0 13 5 13 12l0 156c0 58-48 106-106 106z m-181 22c0 8 0 23 38 23 38 0 38-15 38-23l0-22-76 0z m-93-314c-17 0-30 13-30 30 0 18 13 33 30 33 18 0 33-15 33-33 0-17-15-30-33-30z m262 0c-18 0-33 13-33 30 0 18 15 33 33 33 17 0 30-15 30-33 0-17-13-30-30-30z m92 43l-37 0c-5 25-28 45-55 45-28 0-51-20-56-45l-150 0c-5 25-28 45-56 45-27 0-50-20-55-45l-37 0 0 143c0 43 35 81 80 81l286 0c45 0 80-38 80-81z m-188 198l-178 0c-30 0-55-25-55-55l0-38c0-7 7-12 12-12l221 0c8 0 13 5 13 12l0 78c0 8-5 15-13 15z m-206-55c0 15 13 28 28 28l60 0 0-53-88 0z m194-25l-81 0 0 53 81 0z m120 80l-43 0c-7 0-15-7-15-15l0-78c0-7 8-12 15-12l86 0c5 0 12 5 12 12l0 38c0 30-25 55-55 55z m28-80l-58 0 0 53 30 0c15 0 28-13 28-28z"/>
<glyph unicode="&#58;" d="M424 287l-60 0 0 19c0 13-6 36-48 36-41 0-47-23-47-36l0-19-9 0c-4 66-59 117-125 117-70 0-126-55-126-125 0-68 53-122 121-126l0-62c0-6 3-10 9-10l38 0c4-19 21-32 41-32 21 0 38 13 42 32l113 0c4-19 21-32 42-32 18 0 35 13 41 32l38 0c5 0 9 4 9 10l0 117c0 43-36 79-79 79z m-136 19c0 4 0 17 28 17 29 0 29-13 29-17l0-19-57 0z m-38-78l2 0 0-39-30 0c11 11 21 24 28 39z m23 0l60 0 0-39-60 0z m-245 51c0 59 49 106 107 106 59 0 106-47 106-106 0-58-47-105-106-105-58 0-107 47-107 105z m190-211c-13 0-24 10-24 23 0 13 11 24 24 24 13 0 23-11 23-24 0-13-10-23-23-23z m197 0c-14 0-25 10-25 23 0 13 11 24 25 24 13 0 22-11 22-24 0-13-9-23-22-23z m69 32l-28 0c-4 19-23 34-41 34-21 0-38-15-44-34l-111 0c-4 19-21 34-42 34-20 0-37-15-41-34l-29 0 0 55c17 2 34 7 49 15 0 0 2 0 4 0l142 0c5 0 9 4 9 9l0 61c0 4-4 9-9 9l-87 0c2 6 4 12 4 19l164 0c32 0 60-26 60-60l0-108z m-60 149l-34 0c-6 0-9-5-9-9l0-61c0-5 3-9 9-9l64 0c6 0 10 4 10 9l0 29c0 22-17 41-40 41z m21-60l-46 0 0 39 25 0c11 0 21-9 21-20z m-315 77l-57 0c0 8 2 15 6 19 3 6 11 13 20 21 6 2 10 5 12 7 2 4 2 6 2 10 0 4 0 7-4 9-2 2-4 4-8 4-3 0-5-2-9-6-2-2-2-5-2-11l-15 0c-2 9 2 17 6 23 5 3 11 7 20 7 8 0 15-4 21-7 4-6 8-12 8-19 0-6-2-12-6-15-2-4-8-10-15-15-8-4-13-8-15-12l36 0z m39 0l17 0 0 19 10 0 0 13-10 0 0 51-19 0-30-51 0-13 32 0z m-21 32l2 0 19 34 0-34z m-39-45l4 0 0-42-10 0 0 19-17 0 0-19-7 0 0 42 7 0 0-15 17 0 0 15z m36-26c0-2 2-2 2-4l0-4c0-2 0-4 0-6 0-2 0-2 0-2l9 0c0 0 0 2 0 2-2 0-2 2-2 4l0 6c0 4-2 5-4 7 0 0 0 0-2 0 2 2 2 2 4 2 2 2 4 6 4 10 0 3-2 5-4 7-2 2-5 4-9 4l-23 0 0-42 10 0 0 17 9 0c2 0 4-1 6-1z m-15 18l11 0c2 0 4 0 4 0 2-1 2-3 2-5 0-2 0-2-2-4 0 0-2-2-4-2l-11 0z m43 0c-2 0-2-1-2-3 0-2 0-2 2-4 0 0 4-2 8-2 5-2 11-4 13-6 2 0 2-3 2-7 0-4 0-8-4-10-4-2-8-3-13-3-6 0-10 1-14 3-1 2-3 6-3 12l7 0c0-4 2-4 4-6 2-2 4-2 6-2 2 0 5 0 7 2 0 0 2 2 2 4 0 0 0 2-2 2-2 2-4 2-7 3-6 2-12 2-14 4-1 2-3 6-3 10 0 3 2 5 5 9 2 2 6 4 12 4 5 0 9-2 11-4 4-4 6-6 6-11l-10 0c0 2 0 4-2 5-2 2-3 2-5 2-2 0-6 0-6-2z"/>
<glyph unicode="&#59;" d="M156 282c0 3 4 6 8 6l152 0c2 0 6-3 6-6 0-4-4-7-6-7l-152 0c-4 0-8 3-8 7z m8-64l78 0c3 0 7 2 7 6 0 4-4 6-7 6l-78 0c-4 0-8-2-8-6 0-4 4-6 8-6z m40-45l-40 0c-4 0-8-3-8-6 0-4 4-7 8-7l40 0c3 0 6 3 6 7 0 3-3 6-6 6z m221-64c-14-38-50-81-82-81-3 0-7 1-11 3-1 1-2 1-4 2-1-1-2-1-3-2-4-2-9-3-13-3-16 0-32 11-47 26l-146 0c-4 0-7 4-7 7l0 299c0 4 3 7 7 7l53 0 0 17c0 4 3 6 7 6l26 0c0 19 15 35 35 35 19 0 34-16 34-35l26 0c3 0 6-2 6-6l0-17 54 0c3 0 6-3 6-7l0-157c7 0 16-1 24-5 36-15 48-48 35-89z m-240 238l108 0 0 31-27 0c-2 0-4 1-5 2-1 2-1 4-1 5 1 3 1 4 1 5 0 13-10 21-21 21-13 0-23-8-23-21 0-1 2-2 2-5 0-1 0-3-2-5-1-1-2-2-5-2l-27 0z m70-280c-10 14-18 29-23 42-15 41-2 74 34 89 21 9 40 6 55-5l0 14c-3 0-6-2-11-2-7 0-13 2-18 5-16 9-20 29-20 30-1 3 2 7 4 7 0 0 8 3 17 3 8 0 13-2 19-5 4-2 6-5 9-8l0 16c0 4 4 6 7 6 3 0 7-2 7-6l0-60c5 5 12 7 18 9l0 152-47 0 0-14c0-3-3-6-6-6l-121 0c-4 0-7 3-7 6l0 14-47 0 0-287z m51 167c-5 3-14 4-20 3 3-5 6-13 12-15 5-4 13-4 19-3-2 5-5 11-11 15z m80-47c-23 8-40 3-53-14-1 0-1-1-2-1-1-2-3-2-3-2-1 0-2 0-3 2-2 0-2 1-2 1 0 0 0 0-1 0-12 17-30 22-51 14-21-9-42-29-27-73 15-42 53-81 76-71 1 0 2 1 3 3 2 1 3 1 5 1 2 0 3 0 4-1 1-2 3-3 4-3 22-10 61 29 76 71 15 44-6 64-26 73z"/>
<glyph unicode="&#60;" d="M381 230c-11 4-22 6-32 6 4 2 8 2 12 6 20 13 28 43 28 43 2 6-2 10-6 11 0 0-11 4-22 4-12 0-21-2-29-7-7-4-13-10-17-15l0 15c0 5-4 9-9 9-6 0-10-4-10-9l0-68c-7 5-13 7-20 9l0 89c0 4-2 7-4 9l-32 19 0 70c0 4-4 10-10 10l-85 0c-5 0-11-6-11-10l0-70-30-19c-4-2-6-5-6-9l0-240c0-6 6-9 11-9l106 0c21-29 47-51 72-51 6 0 9 1 15 3 2 0 2 0 4 2 2-2 2-2 4-2 3-2 9-3 15-3 37 0 81 51 98 98 17 51 2 90-42 109z m-39 46c7 3 17 5 26 5-4-7-9-19-19-24-5-4-17-6-24-4 2 8 7 17 17 23z m-12-42c0 0 0 0 2 0-5-2-11-6-17-9l0 9c4 0 10 0 15 0z m-175 176l66 0 0-49-66 0z m-36-318l0 72 38 0c5 0 11 4 11 10 0 5-6 9-11 9l-38 0 0 53 38 0c5 0 11 4 11 9 0 6-6 10-11 10l-38 0 0 64 36 21 64 0 38-21 0-83c-10-2-17-4-27-6-43-19-58-58-41-109 3-10 7-19 13-29z m285 36c-17-49-62-94-87-85-2 2-4 2-6 4-1 2-3 2-5 2-2 0-4 0-6-2-2-2-4-2-6-4-24-9-69 36-86 85-19 51 7 74 30 83 24 10 45 6 60-15 0 0 2-2 2-2 0 0 2 0 2 0 0-1 2-1 4-1 2 0 2 0 4 1 0 0 0 0 1 0 0 0 0 2 2 2 15 21 36 25 61 15 22-9 49-32 30-83z m-102-66c0-5-6-9-9-9-14 0-25 9-34 17-17 17-33 39-40 64-2 4 0 9 6 11 3 2 9 0 11-5 7-21 21-42 36-55 11-11 19-13 21-13 3 0 9-4 9-10z"/>
<glyph unicode="&#61;" d="M309 376c-8 4-16 5-22 5 2 2 5 2 8 3 14 11 20 31 20 32 1 4-2 7-4 8 0 0-8 3-16 3-8 0-15-2-20-6-6-2-10-6-12-10l0 10c0 4-3 7-7 7-4 0-7-3-7-7l0-48c-13 10-29 11-46 3-31-12-42-40-30-76 7-20 22-41 38-54 0-2 0-2 0-2l0-32c0-22 17-40 38-44l0-9c-4-3-6-7-6-12l0-111c0-8 5-13 13-13 8 0 13 5 13 13l0 111c0 5-2 9-6 12l0 9c21 4 38 22 38 44l0 32c0 0 0 0 0 2 16 13 31 34 38 54 12 36 1 64-30 76z m-28 33c6 3 12 4 19 3-3-5-7-12-13-16-4-3-12-4-18-3 2 6 6 12 12 16z m-8-30c0 0 0 0 2 0-4 0-8-3-12-6l0 7c2 0 6-1 10-1z m-49-167l0 24c7-2 12-5 19-5 2 0 4 0 6 1l0-50c-14 4-25 16-25 30z m64 0c0-14-11-26-25-30l0 50c2-1 4-1 6-1 7 0 12 3 19 5z m37 93c-12-34-44-66-61-59-1 1-3 1-4 2-1 2-3 2-4 2-1 0-3 0-4-2-1-1-3-1-4-2-17-7-49 25-61 59-14 36 5 52 21 59 17 7 32 4 43-11 0 0 1-1 1-1 0 0 1 0 1 0 0-1 2-1 3-1 1 0 3 0 3 1 0 0 1 0 1 0 0 0 1 1 1 1 11 15 26 18 43 11 16-7 35-23 21-59z m-72-46c0-4-4-7-6-7-10 0-18 7-24 12-12 12-23 28-28 45-2 3 0 7 4 8 4 2 6 0 8-4 5-14 14-29 25-38 8-8 13-9 15-9 2 0 6-3 6-7z"/>
<glyph unicode="&#62;" d="M449 283c-28 13-56 10-76-7l0 21c5-1 12-3 20-3 13 0 24 3 33 8 23 16 31 48 31 50 2 3-1 8-4 9 0 0-11 3-25 3-13 0-22-3-32-7-11-7-18-17-23-27l0 30c0 4-3 8-8 8-5 0-8-4-8-8l0-84c-6 6-12 9-20 12 5 19 8 36 9 58 0 3-1 6-4 8-49 26-105 40-164 40-59 0-117-14-165-40-3-2-5-5-5-8 9-123 72-230 165-284 2-2 3-2 5-2 2 0 2 0 3 2 28 15 52 36 73 61 24-38 58-69 89-69 7 0 11 2 17 3 2 2 4 2 5 3 2-1 3-1 5-3 6-1 11-3 17-3 42 0 90 58 109 111 19 56 2 100-47 118z m-45 60c6 4 14 6 24 6 4 0 9 0 12-2-5-9-11-23-23-31-7-5-14-6-24-6-4 0-8 1-11 1 3 10 10 24 22 32z m-226-266c-87 54-143 152-153 264 45 25 98 38 153 38 55 0 106-13 153-38-2-19-5-33-9-50-8 0-15 0-22-1 3 11 4 20 6 32 0 3-2 7-5 8-37 17-78 25-120 25-1 0-3 0-3 0-2 0-3 0-3 0-42 0-84-8-120-25-5-1-6-5-5-8 13-89 58-167 123-215 2 0 3-1 5-1 2 0 3 1 3 1 0 0 2 0 2 0 18 16 37 33 53 53 3-8 6-15 11-23-21-24-44-44-69-60z m53 102c-14-19-30-34-45-48l0 110 48 0c-8-17-9-39-3-62z m-142 62l81 0 0-110c-36 29-62 67-81 110z m81 17l-89 0c-6 19-11 39-15 60 32 14 68 20 104 22z m75 0c-1 0-1 0-1 0l-58 0 0 82c36-2 72-8 103-22-2-11-3-21-8-33 0-2 0-2 0-2-16-6-28-15-36-25z m236-88c-21-58-74-111-105-97-1 0-3 1-6 3-2 1-3 1-5 1-1 0-3 0-5-1-1-2-4-3-6-3-31-13-84 39-104 97-2 3-2 6-3 7 0 2 0 2 0 3-14 53 12 78 40 89 30 13 55 7 72-17 0-1 0-1 0-1 0 0 1 0 1-2 0 0 2 0 2 0 0 0 2-2 3-2 2 0 2 2 3 2 0 0 0 0 2 0 0 2 1 2 1 2 0 0 0 0 0 1 18 24 43 30 72 17 30-12 58-39 38-99z m-124-74c0-4-3-8-7-8-14 0-28 13-36 19-21 19-36 45-46 72-1 3 0 8 5 9 5 2 10 0 10-4 9-24 24-49 42-64 12-13 21-16 25-16 4 0 7-5 7-8z"/>
<glyph unicode="&#63;" d="M412 251c-13 6-25 8-36 8 5 0 9 2 13 4 23 15 31 48 31 50 2 4-2 11-6 13 0 0-8 2-21 4l0 91c0 6-4 11-10 11l-256 0c-4 0-10-5-10-11l0-351c0-6 6-10 10-10l119 0c18-21 41-36 62-36 6 0 12 0 16 5 3 0 3 0 5 0 2 0 2 0 4 0 6-5 10-5 16-5 42 0 90 56 108 108 19 57 3 100-45 119z m-73 6c4 0 10-2 17-2 0 0 2 0 2 0-7-2-13-4-19-8z m37 25c-6-4-18-6-27-4 2 8 9 19 19 25 8 4 19 6 29 4-4-8-10-19-21-25z m-184 129l0-50-52 0 0 50z m-52-331l0 260 62 0c6 0 10 4 10 11l0 60 160 0 0-83c-6-2-10-4-14-6-9-5-15-11-19-19l0 19c0 6-4 10-10 10-7 0-11-4-11-10l0-75c-21 14-45 16-72 4-48-19-65-62-46-119 6-16 16-35 27-52l-87 0z m297 59c-19-52-69-102-96-92-2 0-4 2-6 4-2 0-4 2-6 2-2 0-5-2-7-2-2-2-4-4-6-4-27-10-77 40-95 92-21 58 8 81 33 93 27 11 50 6 66-16 0-3 2-3 2-3 2 0 2-2 2-2 3 0 3 0 5 0 2 0 4 0 4 0 0 0 2 2 2 2 0 0 2 0 2 3 17 22 39 27 66 16 27-12 54-35 34-93z m-113-71c0-6-6-12-10-12-14 0-27 12-37 20-19 19-36 44-44 69-2 6 0 12 6 14 7 3 11-2 13-6 8-23 23-45 39-60 13-13 21-15 23-15 4 0 10-6 10-10z"/>
<glyph unicode="&#64;" d="M366 316c-37 15-71 12-98-7l0 29c3 0 15-5 32-5 17 0 29 5 41 12 32 20 42 61 42 64 2 4 0 12-8 14 0 0-14 5-31 5-17 0-30-5-42-12-17-10-27-25-34-39l0 32c0 7-5 14-12 14-7 0-12-7-12-14l0-100c-27 19-61 22-98 7-60-27-82-83-58-156 24-68 85-141 141-141 8 0 15 2 22 5 0 0 3 2 5 2 2 0 5-2 5-2 7-3 14-5 22-5 56 0 117 73 141 141 24 73 2 129-58 156z m-52 80c8 5 17 8 30 8 5 0 7-3 12-3-5-10-15-27-27-36-7-5-17-8-29-8-5 0-7 3-12 3 5 10 12 27 26 36z m86-226c-25-73-90-139-129-124-3 2-5 2-8 5-2 2-5 2-7 2-2 0-5 0-7-2-3-3-5-3-8-5-39-15-104 51-129 124-26 75 10 109 44 124 37 15 68 7 90-22 0-2 0-2 0-2 0 0 3 0 3-3 0 0 2 0 2 0 0 0 3-2 5-2 2 0 5 2 5 2 0 0 2 0 2 0 0 3 3 3 3 3 0 0 0 0 0 2 22 29 53 37 90 22 34-15 70-49 44-124z m-151-95c0-7-8-12-12-12-30 0-83 51-108 117-2 4 3 12 10 14 5 3 12 0 15-7 22-61 68-100 83-100 4 0 12-5 12-12z"/>
<glyph unicode="&#91;" d="M453 194l-48 31 48 30c7 0 7 3 10 9 0 3 0 6-3 12l-58 101c-3 6-15 9-21 6l-52-31 0 58c0 9-6 18-15 18l-116 0c-9 0-15-9-15-18l0-58-52 31c-9 3-18 0-21-6l-58-101c-6-9-3-18 7-21l48-30-48-31c-7 0-7-3-10-9 0-3 0-6 3-12l58-100c3-3 6-6 9-6 3-3 9 0 12 0l52 30 0-58c0-9 6-18 15-18l116 0c9 0 15 9 15 18l0 58 52-30c3 0 9-3 12 0 3 0 6 3 9 6l58 100c6 9 3 18-7 21z m-69-91l-61 34c-6 3-12 3-15 0-6-3-9-6-9-13l0-69-86 0 0 69c0 7-3 10-9 13-3 3-9 3-15 0l-61-34-42 73 61 37c6 0 9 6 9 12 0 6-3 12-9 12l-61 36 42 73 61-33c6-3 12-3 15 0 6 3 9 6 9 12l0 70 86 0 0-70c0-6 3-9 9-12 3-3 9-3 15 0l61 33 42-73-61-36c-6 0-9-6-9-12 0-6 3-12 9-12l61-37z"/>
<glyph unicode="&#93;" d="M422 386l-44 0 29 20c3 4 5 9 1 12-3 4-8 5-12 2l-39-29c-10 27-45 41-104 39-62-2-114-17-134-38-7-6-10-15-10-22 0-25 36-41 78-48l0-55c0-29 23-53 50-58l0-12c-5-3-8-8-8-14l0-144c0-8 8-17 17-17 10 0 17 9 17 17l0 144c0 6-4 11-9 14l0 12c29 5 50 29 50 58l0 55c12 4 24 7 31 12 12 7 19 16 22 28l38-28c1-1 3-1 5-1 3 0 7 0 8 3 2 3 2 9-3 12l-27 21 44 0c5 0 9 5 9 8 0 5-5 10-9 9z m-216-119l0 52c11-2 21-2 31-2l0-89c-17 3-31 19-31 39z m81 0c0-20-14-36-33-39l0 89c12 0 22 2 33 2z m39 83c-14-11-39-14-72-16-3 0-7 0-8 0-77 0-119 23-120 36 0 4 1 7 5 11 7 6 20 13 38 18l0-17c0-5 5-8 10-8 3 0 8 3 8 8l-1 22c10 2 20 4 31 6l0-21c1-5 5-8 10-8 5 0 8 3 8 8l-1 22c7 0 12 2 19 2 3 0 5 0 8 0 3 0 7 0 10 0l0-24c0-3 4-8 9-8 5 0 8 5 8 10l0 20c35-3 54-15 54-36 0-12-6-20-16-25z"/>
<glyph unicode="&#94;" d="M256 422c-110 0-199-89-199-199 0-110 89-200 199-200 110 0 199 90 199 200 0 110-89 199-199 199z m-166-135l102 0c-2-6-5-12-5-19 0-6 3-12 5-16l-111 0c3 12 5 23 9 35z m120-19c0 25 21 48 46 48 25 0 46-23 46-48 0-24-21-45-46-45-25 0-46 21-46 45z m110 19l102 0c4-12 6-23 9-35l-111 0c2 4 5 10 5 16 0 7-3 13-5 19z m-64 112c66 0 125-37 156-91l-100 0c-12 17-33 29-56 29-23 0-44-12-56-29l-100 0c31 54 90 91 156 91z m0-353c-98 0-177 79-177 177 0 2 0 4 0 6l121 0c12-17 33-27 56-27 23 0 44 10 56 27l119 0c0 0 2 2 2 2 0-4 0-6 0-8 0-98-79-177-177-177z m0 191c17 0 31 15 31 31 0 19-14 32-31 32-17 0-31-13-31-32 0-16 14-31 31-31z m0 42c6 0 10-4 10-11 0-4-4-10-10-10-6 0-10 6-10 10 0 7 4 11 10 11z"/>
<glyph unicode="&#95;" d="M331 279l0 97c0 25-22 47-48 47l-54 0c-26 0-48-22-48-47l0-97c-8-7-14-16-14-27l0-57c0-10 6-19 14-26l0-98c0-25 22-46 48-46l54 0c26 0 48 21 48 46l0 98c8 7 14 16 14 26l0 57c0 11-6 20-14 27z m-146-84l0 57c0 13 21 27 53 27l36 0c32 0 53-14 53-27l0-57c0-12-21-26-53-26l-36 0c-32 0-53 14-53 26z m14 181c0 16 14 29 30 29l54 0c16 0 30-13 30-29l0-86c-13 3-25 7-39 7l-36 0c-14 0-26-4-39-7z m114-305c0-16-14-28-30-28l-54 0c-16 0-30 12-30 28l0 87c13-5 25-7 39-7l36 0c14 0 26 4 39 7z m-94 297c0 5 5 8 9 8 5 0 8-3 8-8 0-6-3-9-8-9-4 0-9 3-9 9z m28 0c0 5 4 8 9 8 5 0 9-3 9-8 0-6-4-9-9-9-5 0-9 3-9 9z m29 0c0 5 3 8 8 8 4 0 9-3 9-8 0-6-5-9-9-9-5 0-8 3-8 9z m-40-50c0-5-3-9-8-9-4 0-9 4-9 9 0 3 5 9 9 9 5 0 8-4 8-9z m29 0c0-5-4-9-9-9-5 0-9 4-9 9 0 5 4 9 9 9 5 0 9-4 9-9z m28 0c0-5-5-9-9-9-5 0-8 4-8 9 0 5 3 9 8 9 4 0 9-4 9-9z m-51 34c5 0 9-6 9-11 0-4-4-9-9-9-6 0-9 5-9 9 0 5 3 11 9 11z m28 0c6 0 9-6 9-11 0-4-3-9-9-9-5 0-9 5-9 9 0 5 4 11 9 11z m-51-222c0 3 5 9 9 9 5 0 8-6 8-9 0-6-3-9-8-9-4 0-9 3-9 9z m28 0c0 5 4 9 9 9 5 0 9-4 9-9 0-6-4-9-9-9-5 0-9 3-9 9z m29 0c0 5 3 9 8 9 4 0 9-4 9-9 0-6-5-9-9-9-5 0-8 3-8 9z m-40-50c0-5-3-9-8-11-4 0-9 6-9 9 0 6 5 11 9 11 5 0 8-5 8-9z m29 0c0-5-4-9-9-9-5 0-9 4-9 9 0 4 4 9 9 9 5 0 9-4 9-9z m28 0c0-5-5-9-9-9-5 0-8 4-8 9 0 5 3 9 8 9 4 0 9-4 9-9z m-51 14c-6 0-9 6-9 9 0 6 3 9 9 9 5 0 9-3 9-9 0-3-4-9-9-9z m28 0c-5 0-9 6-9 9 0 6 4 9 9 9 6 0 9-3 9-9 0-3-3-9-9-9z"/>
<glyph unicode="&#96;" d="M343 360c-2 4-4 10 0 14 4 4 13 4 17 0 4-4 4-10 0-14-4-5-11-5-17 0z m40-23c4 4 4 10 0 14-5 4-11 4-15 0-4-4-4-10 0-14 4-4 10-4 15 0z m22-23c5 4 5 10 0 14-4 5-10 5-14 0-4-4-4-10 0-14 4-4 10-4 14 0z m-101 19c-4-5-4-11 0-15 4-4 10-4 14 0 4 4 4 10 0 15-4 4-10 4-14 0z m23-23c-5-4-5-11 0-15 4-4 10-4 14 0 4 4 4 11 0 15-4 4-10 4-14 0z m37-38c4 5 4 11 0 15-4 4-10 4-15 0-4-4-4-10 0-15 5-4 11-4 15 0z m-15 54c5 5 5 11 0 15-4 4-10 4-14 0-4-4-4-10 0-15 4-4 10-4 14 0z m9-8c-4-4-4-10 0-14 4-5 10-5 14 0 4 4 4 10 0 14-4 4-10 4-14 0z m-210-141c-4-4-4-10 0-15 4-4 10-4 15 0 4 5 4 11 0 15-5 4-11 4-15 0z m37-37c5 4 5 10 0 14-4 4-10 4-14 0-4-4-4-10 0-14 4-5 10-5 14 0z m23-23c4 4 4 10 0 14-4 4-10 4-14 0-4-4-4-10 0-14 4-4 10-4 14 0z m-101 18c-5-4-5-10 0-14 4-4 10-4 14 0 4 4 4 10 0 14-4 5-10 5-14 0z m22-22c-4-5-4-11 0-15 5-4 11-4 15 0 4 4 4 10 0 15-4 4-10 4-15 0z m23-23c-4-4-4-11 0-15 4-4 11-4 15 0 4 4 4 11 0 15-4 4-11 4-15 0z m0 39c4 4 4 11 0 15-4 4-10 4-14 0-4-4-4-11 0-15 4-4 10-4 14 0z m9-8c-5-4-5-10 0-15 4-4 10-4 14 0 4 5 4 11 0 15-4 4-10 4-14 0z m282 39c10-10 16-25 16-39 0-15-6-27-16-37l-46-46c-10-11-25-17-39-17-15 0-27 6-38 17l-64 64-64-64c-11-11-23-17-38-17-14 0-29 6-39 17l-46 46c-21 20-21 56 0 76l65 65-65 64c-21 21-21 56 0 77l46 45c21 21 56 21 77 3l64-67 64 67c21 18 56 18 77-3l46-45c10-11 16-23 16-38 0-14-6-29-16-39l-65-64z m-172 173l93-94 64 67c6 6 11 14 11 22-2 9-5 17-11 23l-45 46c-7 6-15 10-25 10-9 0-17-4-21-10z m41-73l-21 21c-10 10-25 16-35 16-6 0-12-2-19-8l-45-46c-7-4-9-12-7-22 0-11 7-21 15-30l21-22c10-11 25-15 35-15 6 0 12 0 19 6l45 46c13 12 9 37-8 54z m-56 58z m93-93z m-201 14l93 94-66 64c-4 6-12 10-21 10-10 0-18-4-25-10l-45-46c-13-12-13-33 0-45z m93-122l-93 93-64-64c-13-13-13-35 0-48l45-44c13-14 36-14 46-2z m198 6c0 8-5 17-11 23l-64 64-93-93 66-65c10-12 33-12 46 2l45 44c7 6 9 15 11 25z m-332 205c-5-4-5-10 0-14 4-4 10-4 14 0 4 4 4 10 0 14-4 5-10 5-14 0z m37 9c4 4 4 10 0 14-4 4-10 4-15 0-4-4-4-10 0-14 5-4 11-4 15 0z m23 23c4 4 4 10 0 14-4 4-11 4-15 0-4-4-4-10 0-14 4-5 11-5 15 0z m-19-73c-4-4-4-10 0-15 4-4 10-4 15 0 4 5 4 11 0 15-5 4-11 4-15 0z m23 23c-4-4-4-11 0-15 4-4 10-4 14 0 5 4 5 11 0 15-4 4-10 4-14 0z m37 23c-4 4-10 4-14 0-4-5-4-11 0-15 4-4 10-4 14 0 4 4 4 10 0 15z m-54-29c4 4 4 10 0 14-4 4-10 4-14 0-4-4-4-10 0-14 4-5 10-5 14 0z m9 37c-5-4-5-10 0-15 4-4 10-4 14 0 4 5 4 11 0 15-4 4-10 4-14 0z m141-210c-4-4-4-10 0-14 4-4 10-4 14 0 4 4 4 10 0 14-4 4-10 4-14 0z m37 9c4 4 4 10 0 14-4 4-10 4-14 0-5-4-5-10 0-14 4-5 10-5 14 0z m23 22c4 5 4 11 0 15-4 4-10 4-15 0-4-4-4-10 0-15 5-4 11-4 15 0z m-19-72c-4-4-4-11 0-15 4-4 11-4 15 0 4 4 4 11 0 15-4 4-11 4-15 0z m23 23c-4-5-4-11 0-15 4-4 10-4 15 0 4 4 4 10 0 15-5 4-11 4-15 0z m23 22c-4-4-4-10 0-14 4-4 10-4 14 0 5 4 5 10 0 14-4 5-10 5-14 0z m-40-29c5 5 5 11 0 15-4 4-10 4-14 0-4-4-4-10 0-15 4-4 10-4 14 0z m9 38c-4-4-4-11 0-15 4-4 10-4 14 0 4 4 4 11 0 15-4 4-10 4-14 0z"/>
<glyph unicode="&#123;" d="M291 199l0-27-28 0c-3 0-6-4-6-6l0-44c0-4 3-6 6-6l28 0 0-28c0-4 4-6 7-6l43 0c4 0 6 2 6 6l0 28 29 0c2 0 6 2 6 6l0 44c0 2-4 6-6 6l-29 0 0 27c0 4-2 6-6 6l-43 0c-3 0-7-2-7-6z m14-33l0 27 30 0 0-27c0-4 2-7 6-7l27 0 0-31-27 0c-4 0-6-2-6-6l0-28-30 0 0 28c0 4-4 6-7 6l-28 0 0 31 28 0c3 0 7 3 7 7z m125 52c-25 14-54 22-83 26l0 120c0 4-4 6-6 6l-80 0c-4 0-7-2-7-6l0-70-73 0c-4 0-7-2-7-6l0-58-73 0c-4 0-7-3-7-6l0-106c0-4 3-6 7-6l133 0c18-38 47-69 82-90 1 0 2-1 4-1 1 0 2 1 2 1 64 37 105 107 111 190 0 2-1 5-3 6z m-256-94l-67 0 0 93 67 0z m93 164l0 70 66 0 0-113c-3 0-8 0-13 0-19 0-37-2-53-6z m-80-164l0 158 67 0 0-45c-15-5-30-12-45-19-2-1-3-4-3-6 3-31 10-60 21-88z m133-90c-58 35-94 100-101 174 30 16 64 25 101 25 36 0 70-9 100-25-7-74-44-139-100-174z m-53 371l-177-151c-1-1-4-1-5-1-1 0-4 0-5 1-3 4-1 8 1 10l180 153-29 0c-3 0-6 3-6 7 0 3 3 6 6 6l41 0c4 0 7-3 7-6l0-42c0-4-3-7-7-7-3 0-6 3-6 7z"/>
<glyph unicode="&#124;" d="M419 425l-326 0c-6 0-8-3-11-8-3-3-3-9 0-14l46-77 0-289c0-8 5-14 13-14l278 0c8 0 14 6 14 14l0 374c0 8-6 14-14 14z m-13-375l-252 0 0 83 48 0c9 0 14 5 14 13 0 8-5 14-14 14l-48 0 0 37 48 0c9 0 14 8 14 16 0 5-5 14-14 14l-48 0 0 37 48 0c9 0 14 5 14 13 0 8-5 14-14 14l-48 0 0 37c0 3 0 6 0 8l-37 62 289 0z m-80 134c0 8 5 16 13 16 11 0 16-8 16-16 0-8-5-14-16-14-8 0-13 6-13 14z m-65-38c0 11 8 19 16 19 11 0 19-8 19-19 0-8-8-16-19-16-8 0-16 8-16 16z m46-43c0 14 13 25 27 25 13 0 24-11 24-25 0-16-11-26-24-26-14 0-27 10-27 26z m-35 126c0 8 8 16 16 16 11 0 19-8 19-16 0-10-8-16-19-16-8 0-16 6-16 16z m-48-134c0 8 8 16 16 16 11 0 16-8 16-16 0-8-5-16-16-16-8 0-16 8-16 16z"/>
<glyph unicode="&#125;" d="M503 187c0 5-4 10-9 10l-30-2 0 33c0 3-5 8-10 8l-60 0c-2 0-5-2-7-3-1-2-1-3-1-5l0-55-76 0c1 3 3 5 4 8 12 26 17 53 15 81-3 37-19 73-47 99-7 6-13 11-20 16 0 0 0 2-1 2-26 19-59 29-93 29-42 0-82-16-111-47-56-54-62-140-20-201 0-2 2-3 3-5 5-7 10-13 17-20 27-27 64-43 103-47 2 0 4-1 7-1l31 0 0-31c0-5 3-8 8-8l61 0c2 0 4 0 5 2 2 1 3 4 3 6l0 55 111 0 0-55c0-5 3-8 8-8l61 0c2 0 4 2 5 3 2 2 4 3 4 5l0 32 30 0c2 0 5 0 7 2 2 2 2 3 2 7z m-203 2c-3-7-7-11-10-16l-15 0-1 48c0 0 1 0 1 0 15 20 25 36 35 54 1-5 1-10 1-15 3-24-1-50-11-71z m-274 50c34 12 66 33 94 59 29 30 47 60 58 94 24-2 49-10 70-23-15-42-42-84-78-118-36-38-79-65-122-80-13 21-21 44-22 68z m42 111c24 25 58 40 92 42-9-29-27-55-53-81-23-25-52-43-81-54 3 34 16 67 42 93z m-10-192c44 15 88 44 125 80 36 37 62 77 78 120 3-2 6-5 10-8 14-15 24-31 32-51 0 0-2 0-2 0-8-22-19-42-37-65l-58 0c-4 0-5 0-7-1-1-2-1-3-1-7l0-31-31 0c-5 0-10-3-10-8l2-47c-17-9-33-16-47-22-17 6-31 16-44 29-3 3-7 8-10 11z m101-52c-8 0-17 2-25 4 8 3 17 8 25 11z m16-3l0 76 23 0 0-76z m39-39l0 154 44 0 0-154z m61 63l0 28 111 0 0-28z m127-63l0 154 44 2 1-156z m62 41l0 74 22 0 0-74z"/>
<glyph unicode="&#126;" d="M399 372c-39 37-89 58-143 58-9 0-16-1-23-1-1 0-1 0-3 0-44-6-84-26-117-57-31-33-51-75-56-117-1-2-1-2-1-3-6-59 13-120 57-166 39-37 89-59 143-59 54 0 104 22 143 59 77 78 77 207 0 286z m-196-322c-21 6-41 16-60 30 57 19 114 54 163 103 47 46 82 100 102 154 11-17 21-35 27-55 0 0-2-2-2-2-13-55-41-107-81-147-42-40-92-69-146-83-1 0-1 0-3 0z m109 358c-13-53-43-106-86-148-43-44-96-74-149-86-7 23-10 48-7 72 39 11 76 34 104 63 31 30 53 67 65 106 6 0 11 1 17 1 19 0 37-3 56-8z m-188-48c28 28 61 46 98 52-10-33-30-66-58-92-25-27-58-47-91-57 6 36 23 70 51 97z m-41-200c54 13 109 44 153 89 44 44 76 98 89 153 24-9 45-23 63-42 2-3 5-5 8-8-17-56-53-112-100-159-49-49-107-86-166-101-1 1-4 2-6 5-18 19-32 40-41 63z m305-63c-35-35-82-56-132-56-7 0-16 2-23 2 49 17 93 43 129 80 36 36 63 80 78 129 8-55-10-113-52-155z"/>
<glyph unicode="&#92;" d="M279 276l-158 0c-4 0-6 4-6 6 0 4 2 8 6 8l158 0c4 0 7-4 7-8 0-2-3-6-7-6z m-70-53c0 4-2 8-6 8l-82 0c-4 0-6-4-6-8 0-3 2-7 6-7l82 0c4 0 6 4 6 7z m-88-53c-4 0-6-3-6-7 0-2 2-6 6-6l43 0c3 0 6 4 6 6 0 4-3 7-6 7z m323-55c0-4-4-6-8-6l-53 0c-3 0-5 1-6 2l-7 11-17-25c-1-3-2-4-5-4 0 0 0 0-1 0-3 1-4 3-5 5l-16 44-12-29c-1-3-4-4-6-4l-31 0c-4 0-7 2-7 6 0 4 3 7 7 7l27 0 15 41c2 3 3 5 7 5 3 0 5-2 5-5l18-48 16 24c1 1 4 2 5 2 3 0 5-1 7-2l9-17 31 0c2 5 5 9 6 14 1 5 3 10 3 17 0 18-11 36-27 45-8 4-17 7-26 7-16 0-30-7-41-19-1-2-3-2-5-2-2 0-4 0-5 2-15 19-44 24-66 12-17-9-27-27-27-45 0-7 1-12 2-17 9-38 79-87 96-97 11 6 46 30 70 55 3 3 7 4 9 2 3-3 3-8 0-11-31-32-74-59-75-61-1 0-2 0-4 0-1 0-2 0-4 0-3 3-94 60-105 108-1 7-2 13-2 21 0 23 13 45 34 57 22 11 49 10 70-4l0 152-50 0 0-15c0-4-4-6-6-6l-126 0c-4 0-6 2-6 6l0 15-50 0 0-297 165 0c4 0 8-3 8-7 0-4-4-6-8-6l-171 0c-4 0-8 2-8 6l0 310c0 4 4 8 8 8l56 0 0 18c0 3 2 6 6 6l27 0c0 20 16 35 35 35 20 0 37-15 37-35l27 0c4 0 6-3 6-6l0-18 56 0c4 0 6-4 6-8l0-159c21 15 50 18 73 5 21-12 34-34 34-57 0-8-2-14-4-21 0-4-1-6-3-10l4 0c4 0 8-3 8-7z m-187 267l-28 0c-3 0-4 1-5 3-2 2-3 4-2 6 0 2 0 4 0 5 0 12-9 22-22 22-11 0-22-10-22-22 0-1 0-3 2-5 0-2 0-4-2-6-1-2-4-3-5-3l-28 0 0-32 112 0z"/>
</font>
</defs>
</svg>
