<?xml version="1.0" encoding="utf-8"?>
<!-- Generator: Adobe Illustrator 16.0.0, SVG Export Plug-In . SVG Version: 6.00 Build 0)  -->
<!DOCTYPE svg PUBLIC "-//W3C//DTD SVG 1.1//EN" "http://www.w3.org/Graphics/SVG/1.1/DTD/svg11.dtd">
<svg version="1.1" id="_x201C__1_" xmlns="http://www.w3.org/2000/svg" xmlns:xlink="http://www.w3.org/1999/xlink" x="0px" y="0px"
	 width="31px" height="25px" viewBox="0 0 31 25" enable-background="new 0 0 31 25" xml:space="preserve">
<g id="_x201C_">
	<g>
		<path fill="#202020" d="M7.625,12.438H7.078c0.104-1.536,0.56-2.813,1.367-3.828c0.807-1.016,1.9-1.9,3.281-2.656
			c1.016-0.547,1.523-1.393,1.523-2.539c0-0.781-0.234-1.419-0.703-1.914c-0.469-0.494-1.12-0.742-1.953-0.742
			c-1.25,0-2.676,0.658-4.277,1.973C4.715,4.046,3.36,5.83,2.254,8.082c-1.107,2.253-1.66,4.668-1.66,7.246
			c0,2.813,0.631,4.98,1.895,6.504c1.263,1.523,2.845,2.285,4.746,2.285c1.744,0,3.209-0.54,4.395-1.621
			c1.185-1.08,1.777-2.454,1.777-4.121c0-1.692-0.593-3.105-1.777-4.238C10.443,13.004,9.109,12.438,7.625,12.438z M28.816,14.137
			c-1.186-1.133-2.507-1.699-3.965-1.699h-0.508c0.156-1.563,0.599-2.832,1.328-3.809c0.729-0.977,1.81-1.868,3.242-2.676
			c1.016-0.521,1.523-1.367,1.523-2.539c0-0.807-0.229-1.451-0.684-1.934c-0.456-0.481-1.113-0.723-1.973-0.723
			c-0.938,0-1.999,0.385-3.184,1.152c-1.186,0.769-2.292,1.811-3.32,3.125c-1.029,1.315-1.869,2.858-2.52,4.629
			c-0.651,1.771-0.977,3.659-0.977,5.664c0,2.787,0.625,4.961,1.875,6.523s2.838,2.344,4.766,2.344c1.744,0,3.209-0.56,4.395-1.68
			c1.185-1.119,1.777-2.5,1.777-4.141C30.594,16.683,30.001,15.27,28.816,14.137z"/>
	</g>
</g>
</svg>
